<svg xmlns="http://www.w3.org/2000/svg" xmlns:xlink="http://www.w3.org/1999/xlink" width="1000" height="750" viewBox="0 0 1000 750">
    <!-- 
      Enhanced Architecture Diagram for MyAdminProject
      - Includes icons for major technologies.
      - Detailed CI/CD and request flow.
      - Animated paths to visualize data movement.
    -->
    <defs>
        <marker id="arrowhead" viewBox="0 0 10 10" refX="8" refY="5" markerWidth="6" markerHeight="6" orient="auto-start-reverse">
            <path d="M 0 0 L 10 5 L 0 10 z" fill="#5f6368"/>
        </marker>
        
        <!-- Icons -->
        <symbol id="icon-developer" viewBox="0 0 24 24">
            <path fill="currentColor" d="M12,2A10,10 0 0,0 2,12A10,10 0 0,0 12,22A10,10 0 0,0 22,12A10,10 0 0,0 12,2M12,5A3,3 0 0,1 15,8A3,3 0 0,1 12,11A3,3 0 0,1 9,8A3,3 0 0,1 12,5M12,19.2C9.5,19.2 7.29,17.92 6,15.98C6.03,13.97 10,12.9 12,12.9C14,12.9 17.97,13.97 18,15.98C16.71,17.92 14.5,19.2 12,19.2Z"/>
        </symbol>
        <symbol id="icon-git" viewBox="0 0 24 24">
            <path fill="currentColor" d="M21.7,8.3c-0.4,0.1-0.8,0.2-1.2,0.2c-1.5,0-2.7-1.2-2.7-2.7c0-1.5,1.2-2.7,2.7-2.7s2.7,1.2,2.7,2.7c0,1-0.5,1.9-1.3,2.4l-0.1,3.1c1.3,0.5,2.2,1.7,2.2,3.1c0,1.8-1.5,3.3-3.3,3.3s-3.3-1.5-3.3-3.3c0-1.2,0.7-2.3,1.7-2.8L19.5,9c-1.3-0.5-2.2-1.7-2.2-3.1c0-1.8,1.5-3.3,3.3-3.3s3.3,1.5,3.3,3.3c0,0.7-0.2,1.3-0.6,1.8l0.1,12.3c0.4-0.1,0.8-0.2,1.2-0.2c1.5,0,2.7,1.2,2.7,2.7s-1.2,2.7-2.7,2.7s-2.7-1.2-2.7-2.7c0-1,0.5-1.9,1.3-2.4l0.1-12.5c-1.3-0.5-2.2-1.7-2.2-3.1c0-0.7,0.2-1.3,0.6-1.8L12.9,17c-0.4,0.3-0.9,0.5-1.4,0.5c-1.5,0-2.7-1.2-2.7-2.7s1.2-2.7,2.7-2.7s2.7,1.2,2.7,2.7c0,1-0.5,1.9-1.3,2.4l4.4,4.4c0.3-0.4,0.8-0.6,1.4-0.6c1.5,0,2.7,1.2,2.7,2.7c0,1.5-1.2,2.7-2.7,2.7s-2.7-1.2-2.7-2.7c0-1,0.5-1.9,1.3-2.4l-4.4-4.4c-0.3,0.4-0.8,0.6-1.4,0.6c-1.5,0-2.7-1.2-2.7-2.7s1.2-2.7,2.7-2.7s2.7,1.2,2.7,2.7c0,1-0.5,1.9-1.3,2.4l4.4,4.4c0.3-0.4,0.8-0.6,1.4-0.6c1.5,0,2.7,1.2,2.7,2.7c0,1.5-1.2,2.7-2.7,2.7s-2.7-1.2-2.7-2.7c0-1,0.5-1.9,1.3-2.4l-4.4-4.4c-0.3,0.4-0.8,0.6-1.4,0.6c-1.5,0-2.7-1.2-2.7-2.7s1.2-2.7,2.7-2.7s2.7,1.2,2.7,2.7c0,1-0.5,1.9-1.3,2.4l4.4,4.4c0.3-0.4,0.8-0.6,1.4-0.6c1.5,0,2.7,1.2,2.7,2.7c0,1.5-1.2,2.7-2.7,2.7s-2.7-1.2-2.7-2.7c0-1,0.5-1.9,1.3-2.4l-4.4-4.4c-0.3,0.4-0.8,0.6-1.4,0.6c-1.5,0-2.7-1.2-2.7-2.7s1.2-2.7,2.7-2.7s2.7,1.2,2.7,2.7c0,1-0.5,1.9-1.3,2.4l-0.1-3.1c-1.3-0.5-2.2-1.7-2.2-3.1c0-1.8,1.5-3.3,3.3-3.3s3.3,1.5,3.3,3.3c0,0.7-0.2,1.3-0.6,1.8L8.5,8.3c0.4-0.1,0.8-0.2,1.2-0.2c1.5,0,2.7,1.2,2.7,2.7s-1.2,2.7-2.7,2.7s-2.7-1.2-2.7-2.7c0-1,0.5-1.9,1.3-2.4l0.1-3.1C7.8,7.8,7,6.6,7,5.2c0-1.8,1.5-3.3,3.3-3.3s3.3,1.5,3.3,3.3c0,0.7-0.2,1.3-0.6,1.8l-4.4,4.4c0.4,0.3,0.9,0.5,1.4,0.5c1.5,0,2.7-1.2,2.7-2.7s-1.2-2.7-2.7-2.7s-2.7,1.2-2.7,2.7c0,1,0.5,1.9,1.3,2.4l-4.4-4.4c-0.3,0.4-0.8,0.6-1.4,0.6c-1.5,0-2.7-1.2-2.7-2.7s1.2-2.7,2.7-2.7s2.7,1.2,2.7,2.7c0,1-0.5,1.9-1.3,2.4l-4.4-4.4c-0.3,0.4-0.8,0.6-1.4,0.6c-1.5,0-2.7-1.2-2.7-2.7s1.2-2.7,2.7-2.7s2.7,1.2,2.7,2.7c0,1-0.5,1.9-1.3,2.4l-4.4-4.4c-0.3,0.4-0.8,0.6-1.4,0.6c-1.5,0-2.7-1.2-2.7-2.7s1.2-2.7,2.7-2.7s2.7,1.2,2.7,2.7c0,1-0.5,1.9-1.3,2.4l-4.4-4.4c-0.3,0.4-0.8,0.6-1.4,0.6c-1.5,0-2.7-1.2-2.7-2.7s1.2-2.7,2.7-2.7s2.7,1.2,2.7,2.7c0,1-0.5,1.9-1.3,2.4l-4.4-4.4c-0.3,0.4-0.8,0.6-1.4,0.6c-1.5,0-2.7-1.2-2.7-2.7s1.2-2.7,2.7-2.7s2.7,1.2,2.7,2.7c0,1-0.5,1.9-1.3,2.4l-4.4-4.4c-0.3,0.4-0.8,0.6-1.4,0.6c-1.5,0-2.7-1.2-2.7-2.7s1.2-2.7,2.7-2.7s2.7,1.2,2.7,2.7c0,1-0.5,1.9-1.3,2.4l-4.4-4.4c-0.3,0.4-0.8,0.6-1.4,0.6c-1.5,0-2.7-1.2-2.7-2.7s1.2-2.7,2.7-2.7s2.7,1.2,2.7,2.7c0,1-0.5,1.9-1.3,2.4l-4.4-4.4c-0.3,0.4-0.8,0.6-1.4,0.6c-1.5,0-2.7-1.2-2.7-2.7s1.2-2.7,2.7-2.7s2.7,1.2,2.7,2.7c0,1-0.5,1.9-1.3,2.4l-4.4-4.4c-0.3,0.4-0.8,0.6-1.4,0.6c-1.5,0-2.7-1.2-2.7-2.7s1.2-2.7,2.7-2.7s2.7,1.2,2.7,2.7c0,1-0.5,1.9-1.3,2.4l-4.4-4.4c-0.3,0.4-0.8,0.6-1.4,0.6c-1.5,0-2.7-1.2-2.7-2.7s1.2-2.7,2.7-2.7s2.7,1.2,2.7,2.7c0,1-0.5,1.9-1.3,2.4l-4.4-4.4c-0.3,0.4-0.8,0.6-1.4,0.6c-1.5,0-2.7-1.2-2.7-2.7s1.2-2.7,2.7-2.7s2.7,1.2,2.7,2.7c0,1-0.5,1.9-1.3,2.4l-4.4-4.4c-0.3,0.4-0.8,0.6-1.4,0.6c-1.5,0-2.7-1.2-2.7-2.7s1.2-2.7,2.7-2.7s2.7,1.2,2.7,2.7c0,1-0.5,1.9-1.3,2.4l-4.4-4.4c-0.3,0.4-0.8,0.6-1.4,0.6c-1.5,0-2.7-1.2-2.7-2.7s1.2-2.7,2.7-2.7s2.7,1.2,2.7,2.7c0,1-0.5,1.9-1.3,2.4l-4.4-4.4c-0.3,0.4-0.8,0.6-1.4,0.6c-1.5,0-2.7-1.2-2.7-2.7s1.2-2.7,2.7-2.7s2.7,1.2,2.7,2.7c0,1-0.5,1.9-1.3,2.4l-4.4-4.4c-0.3,0.4-0.8,0.6-1.4,0.6c-1.5,0-2.7-1.2-2.7-2.7s1.2-2.7,2.7-2.7s2.7,1.2,2.7,2.7c0,1-0.5,1.9-1.3,2.4l-4.4-4.4c-0.3,0.4-0.8,0.6-1.4,0.6c-1.5,0-2.7-1.2-2.7-2.7s1.2-2.7,2.7-2.7s2.7,1.2,2.7,2.7c0,1-0.5,1.9-1.3,2.4l-4.4-4.4c-0.3,0.4-0.8,0.6-1.4,0.6c-1.5,0-2.7-1.2-2.7-2.7s1.2-2.7,2.7-2.7s2.7,1.2,2.7,2.7c0,1-0.5,1.9-1.3,2.4l-4.4-4.4c-0.3,0.4-0.8,0.6-1.4,0.6c-1.5,0-2.7-1.2-2.7-2.7s1.2-2.7,2.7-2.7s2.7,1.2,2.7,2.7c0,1-0.5,1.9-1.3,2.4l-4.4-4.4c-0.3,0.4-0.8,0.6-1.4,0.6c-1.5,0-2.7-1.2-2.7-2.7s1.2-2.7,2.7-2.7s2.7,1.2,2.7,2.7c0,1-0.5,1.9-1.3,2.4l-4.4-4.4c-0.3,0.4-0.8,0.6-1.4,0.6c-1.5,0-2.7-1.2-2.7-2.7s1.2-2.7,2.7-2.7s2.7,1.2,2.7,2.7c0,1-0.5,1.9-1.3,2.4l-4.4-4.4c-0.3,0.4-0.8,0.6-1.4,0.6c-1.5,0-2.7-1.2-2.7-2.7s1.2-2.7,2.7-2.7s2.7,1.2,2.7,2.7c0,1-0.5,1.9-1.3,2.4l-4.4-4.4c-0.3,0.4-0.8,0.6-1.4,0.6c-1.5,0-2.7-1.2-2.7-2.7s1.2-2.7,2.7-2.7s2.7,1.2,2.7,2.7c0,1-0.5,1.9-1.3,2.4l-4.4-4.4c-0.3,0.4-0.8,0.6-1.4,0.6c-1.5,0-2.7-1.2-2.7-2.7s1.2-2.7,2.7-2.7s2.7,1.2,2.7,2.7c0,1-0.5,1.9-1.3,2.4l-4.4-4.4c-0.3,0.4-0.8,0.6-1.4,0.6c-1.5,0-2.7-1.2-2.7-2.7s1.2-2.7,2.7-2.7s2.7,1.2,2.7,2.7c0,1-0.5,1.9-1.3,2.4l-4.4-4.4c-0.3,0.4-0.8,0.6-1.4,0.6c-1.5,0-2.7-1.2-2.7-2.7s1.2-2.7,2.7-2.7s2.7,1.2,2.7,2.7c0,1-0.5,1.9-1.3,2.4l-4.4-4.4c-0.3,0.4-0.8,0.6-1.4,0.6c-1.5,0-2.7-1.2-2.7-2.7s1.2-2.7,2.7-2.7s2.7,1.2,2.7,2.7c0,1-0.5,1.9-1.3,2.4l-4.4-4.4c-0.3,0.4-0.8,0.6-1.4,0.6c-1.5,0-2.7-1.2-2.7-2.7s1.2-2.7,2.7-2.7s2.7,1.2,2.7,2.7c0,1-0.5,1.9-1.3,2.4l-4.4-4.4c-0.3,0.4-0.8,0.6-1.4,0.6c-1.5,0-2.7-1.2-2.7-2.7s1.2-2.7,2.7-2.7s2.7,1.2,2.7,2.7c0,1-0.5,1.9-1.3,2.4l-4.4-4.4c-0.3,0.4-0.8,0.6-1.4,0.6c-1.5,0-2.7-1.2-2.7-2.7s1.2-2.7,2.7-2.7s2.7,1.2,2.7,2.7c0,1-0.5,1.9-1.3,2.4l-4.4-4.4c-0.3,0.4-0.8,0.6-1.4,0.6c-1.5,0-2.7-1.2-2.7-2.7s1.2-2.7,2.7-2.7s2.7,1.2,2.7,2.7c0,1-0.5,1.9-1.3,2.4l-4.4-4.4c-0.3,0.4-0.8,0.6-1.4,0.6c-1.5,0-2.7-1.2-2.7-2.7s1.2-2.7,2.7-2.7s2.7,1.2,2.7,2.7c0,1-0.5,1.9-1.3,2.4l-4.4-4.4c-0.3,0.4-0.8,0.6-1.4,0.6c-1.5,0-2.7-1.2-2.7-2.7s1.2-2.7,2.7-2.7s2.7,1.2,2.7,2.7c0,1-0.5,1.9-1.3,2.4l-4.4-4.4c-0.3,0.4-0.8,0.6-1.4,0.6c-1.5,0-2.7-1.2-2.7-2.7s1.2-2.7,2.7-2.7s2.7,1.2,2.7,2.7c0,1-0.5,1.9-1.3,2.4l-4.4-4.4c-0.3,0.4-0.8,0.6-1.4,0.6c-1.5,0-2.7-1.2-2.7-2.7s1.2-2.7,2.7-2.7s2.7,1.2,2.7,2.7c0,1-0.5,1.9-1.3,2.4l-4.4-4.4c-0.3,0.4-0.8,0.6-1.4,0.6c-1.5,0-2.7-1.2-2.7-2.7s1.2-2.7,2.7-2.7s2.7,1.2,2.7,2.7c0,1-0.5,1.9-1.3,2.4l-4.4-4.4c-0.3,0.4-0.8,0.6-1.4,0.6c-1.5,0-2.7-1.2-2.7-2.7s1.2-2.7,2.7-2.7s2.7,1.2,2.7,2.7c0,1-0.5,1.9-1.3,2.4l-4.4-4.4c-0.3,0.4-0.8,0.6-1.4,0.6c-1.5,0-2.7-1.2-2.7-2.7s1.2-2.7,2.7-2.7s2.7,1.2,2.7,2.7c0,1-0.5,1.9-1.3,2.4l-4.4-4.4c-0.3,0.4-0.8,0.6-1.4,0.6c-1.5,0-2.7-1.2-2.7-2.7s1.2-2.7,2.7-2.7s2.7,1.2,2.7,2.7c0,1-0.5,1.9-1.3,2.4l-4.4-4.4c-0.3,0.4-0.8,0.6-1.4,0.6c-1.5,0-2.7-1.2-2.7-2.7s1.2-2.7,2.7-2.7s2.7,1.2,2.7,2.7c0,1-0.5,1.9-1.3,2.4l-4.4-4.4c-0.3,0.4-0.8,0.6-1.4,0.6c-1.5,0-2.7-1.2-2.7-2.7s1.2-2.7,2.7-2.7s2.7,1.2,2.7,2.7c0,1-0.5,1.9-1.3,2.4l-4.4-4.4c-0.3,0.4-0.8,0.6-1.4,0.6c-1.5,0-2.7-1.2-2.7-2.7s1.2-2.7,2.7-2.7s2.7,1.2,2.7,2.7c0,1-0.5,1.9-1.3,2.4l-4.4-4.4c-0.3,0.4-0.8,0.6-1.4,0.6c-1.5,0-2.7-1.2-2.7-2.7s1.2-2.7,2.7-2.7s2.7,1.2,2.7,2.7c0,1-0.5,1.9-1.3,2.4l-4.4-4.4c-0.3,0.4-0.8,0.6-1.4,0.6c-1.5,0-2.7-1.2-2.7-2.7s1.2-2.7,2.7-2.7s2.7,1.2,2.7,2.7c0,1-0.5,1.9-1.3,2.4l-4.4-4.4c-0.3,0.4-0.8,0.6-1.4,0.6c-1.5,0-2.7-1.2-2.7-2.7s1.2-2.7,2.7-2.7s2.7,1.2,2.7,2.7c0,1-0.5,1.9-1.3,2.4l-4.4-4.4c-0.3,0.4-0.8,0.6-1.4,0.6c-1.5,0-2.7-1.2-2.7-2.7s1.2-2.7,2.7-2.7s2.7,1.2,2.7,2.7c0,1-0.5,1.9-1.3,2.4l-4.4-4.4c-0.3,0.4-0.8,0.6-1.4,0.6c-1.5,0-2.7-1.2-2.7-2.7s1.2-2.7,2.7-2.7s2.7,1.2,2.7,2.7c0,1-0.5,1.9-1.3,2.4l-4.4-4.4c-0.3,0.4-0.8,0.6-1.4,0.6c-1.5,0-2.7-1.2-2.7-2.7s1.2-2.7,2.7-2.7s2.7,1.2,2.7,2.7c0,1-0.5,1.9-1.3,2.4l-4.4-4.4c-0.3,0.4-0.8,0.6-1.4,0.6c-1.5,0-2.7-1.2-2.7-2.7s1.2-2.7,2.7-2.7s2.7,1.2,2.7,2.7c0,1-0.5,1.9-1.3,2.4l-4.4-4.4c-0.3,0.4-0.8,0.6-1.4,0.6c-1.5,0-2.7-1.2-2.7-2.7s1.2-2.7,2.7-2.7s2.7,1.2,2.7,2.7c0,1-0.5,1.9-1.3,2.4l-4.4-4.4c-0.3,0.4-0.8,0.6-1.4,0.6c-1.5,0-2.7-1.2-2.7-2.7s1.2-2.7,2.7-2.7s2.7,1.2,2.7,2.7c0,1-0.5,1.9-1.3,2.4l-4.4-4.4c-0.3,0.4-0.8,0.6-1.4,0.6c-1.5,0-2.7-1.2-2.7-2.7s1.2-2.7,2.7-2.7s2.7,1.2,2.7,2.7c0,1-0.5,1.9-1.3,2.4l-4.4-4.4c-0.3,0.4-0.8,0.6-1.4,0.6c-1.5,0-2.7-1.2-2.7-2.7s1.2-2.7,2.7-2.7s2.7,1.2,2.7,2.7c0,1-0.5,1.9-1.3,2.4l-4.4-4.4c-0.3,0.4-0.8,0.6-1.4,0.6c-1.5,0-2.7-1.2-2.7-2.7s1.2-2.7,2.7-2.7s2.7,1.2,2.7,2.7c0,1-0.5,1.9-1.3,2.4l-4.4-4.4c-0.3,0.4-0.8,0.6-1.4,0.6c-1.5,0-2.7-1.2-2.7-2.7s1.2-2.7,2.7-2.7s2.7,1.2,2.7,2.7c0,1-0.5,1.9-1.3,2.4l-4.4-4.4c-0.3,0.4-0.8,0.6-1.4,0.6c-1.5,0-2.7-1.2-2.7-2.7s1.2-2.7,2.7-2.7s2.7,1.2,2.7,2.7c0,1-0.5,1.9-1.3,2.4l-4.4-4.4c-0.3,0.4-0.8,0.6-1.4,0.6c-1.5,0-2.7-1.2-2.7-2.7s1.2-2.7,2.7-2.7s2.7,1.2,2.7,2.7c0,1-0.5,1.9-1.3,2.4l-4.4-4.4c-0.3,0.4-0.8,0.6-1.4,0.6c-1.5,0-2.7-1.2-2.7-2.7s1.2-2.7,2.7-2.7s2.7,1.2,2.7,2.7c0,1-0.5,1.9-1.3,2.4l-4.4-4.4c-0.3,0.4-0.8,0.6-1.4,0.6c-1.5,0-2.7-1.2-2.7-2.7s1.2-2.7,2.7-2.7s2.7,1.2,2.7,2.7c0,1-0.5,1.9-1.3,2.4l-4.4-4.4c-0.3,0.4-0.8,0.6-1.4,0.6c-1.5,0-2.7-1.2-2.7-2.7s1.2-2.7,2.7-2.7s2.7,1.2,2.7,2.7c0,1-0.5,1.9-1.3,2.4l-4.4-4.4c-0.3,0.4-0.8,0.6-1.4,0.6c-1.5,0-2.7-1.2-2.7-2.7s1.2-2.7,2.7-2.7s2.7,1.2,2.7,2.7c0,1-0.5,1.9-1.3,2.4l-4.4-4.4c-0.3,0.4-0.8,0.6-1.4,0.6c-1.5,0-2.7-1.2-2.7-2.7s1.2-2.7,2.7-2.7s2.7,1.2,2.7,2.7c0,1-0.5,1.9-1.3,2.4l-4.4-4.4c-0.3,0.4-0.8,0.6-1.4,0.6c-1.5,0-2.7-1.2-2.7-2.7s1.2-2.7,2.7-2.7s2.7,1.2,2.7,2.7c0,1-0.5,1.9-1.3,2.4l-4.4-4.4c-0.3,0.4-0.8,0.6-1.4,0.6c-1.5,0-2.7-1.2-2.7-2.7s1.2-2.7,2.7-2.7s2.7,1.2,2.7,2.7c0,1-0.5,1.9-1.3,2.4l-4.4-4.4c-0.3,0.4-0.8,0.6-1.4,0.6c-1.5,0-2.7-1.2-2.7-2.7s1.2-2.7,2.7-2.7s2.7,1.2,2.7,2.7c0,1-0.5,1.9-1.3,2.4l-4.4-4.4c-0.3,0.4-0.8,0.6-1.4,0.6c-1.5,0-2.7-1.2-2.7-2.7s1.2-2.7,2.7-2.7s2.7,1.2,2.7,2.7c0,1-0.5,1.9-1.3,2.4l-4.4-4.4c-0.3,0.4-0.8,0.6-1.4,0.6c-1.5,0-2.7-1.2-2.7-2.7s1.2-2.7,2.7-2.7s2.7,1.2,2.7,2.7c0,1-0.5,1.9-1.3,2.4l-4.4-4.4c-0.3,0.4-0.8,0.6-1.4,0.6c-1.5,0-2.7-1.2-2.7-2.7s1.2-2.7,2.7-2.7s2.7,1.2,2.7,2.7c0,1-0.5,1.9-1.3,2.4l-4.4-4.4c-0.3,0.4-0.8,0.6-1.4,0.6c-1.5,0-2.7-1.2-2.7-2.7s1.2-2.7,2.7-2.7s2.7,1.2,2.7,2.7c0,1-0.5,1.9-1.3,2.4l-4.4-4.4c-0.3,0.4-0.8,0.6-1.4,0.6c-1.5,0-2.7-1.2-2.7-2.7s1.2-2.7,2.7-2.7s2.7,1.2,2.7,2.7c0,1-0.5,1.9-1.3,2.4l-4.4-4.4c-0.3,0.4-0.8,0.6-1.4,0.6c-1.5,0-2.7-1.2-2.7-2.7s1.2-2.7,2.7-2.7s2.7,1.2,2.7,2.7c0,1-0.5,1.9-1.3,2.4l-4.4-4.4c-0.3,0.4-0.8,0.6-1.4,0.6c-1.5,0-2.7-1.2-2.7-2.7s1.2-2.7,2.7-2.7s2.7,1.2,2.7,2.7c0,1-0.5,1.9-1.3,2.4l-4.4-4.4c-0.3,0.4-0.8,0.6-1.4,0.6c-1.5,0-2.7-1.2-2.7-2.7s1.2-2.7,2.7-2.7s2.7,1.2,2.7,2.7c0,1-0.5,1.9-1.3,2.4l-4.4-4.4c-0.3,0.4-0.8,0.6-1.4,0.6c-1.5,0-2.7-1.2-2.7-2.7s1.2-2.7,2.7-2.7s2.7,1.2,2.7,2.7c0,1-0.5,1.9-1.3,2.4l-4.4-4.4c-0.3,0.4-0.8,0.6-1.4,0.6c-1.5,0-2.7-1.2-2.7-2.7s1.2-2.7,2.7-2.7s2.7,1.2,2.7,2.7c0,1-0.5,1.9-1.3,2.4l-4.4-4.4c-0.3,0.4-0.8,0.6-1.4,0.6c-1.5,0-2.7-1.2-2.7-2.7s1.2-2.7,2.7-2.7s2.7,1.2,2.7,2.7c0,1-0.5,1.9-1.3,2.4l-4.4-4.4c-0.3,0.4-0.8,0.6-1.4,0.6c-1.5,0-2.7-1.2-2.7-2.7s1.2-2.7,2.7-2.7s2.7,1.2,2.7,2.7c0,1-0.5,1.9-1.3,2.4l-4.4-4.4c-0.3,0.4-0.8,0.6-1.4,0.6c-1.5,0-2.7-1.2-2.7-2.7s1.2-2.7,2.7-2.7s2.7,1.2,2.7,2.7c0,1-0.5,1.9-1.3,2.4l-4.4-4.4c-0.3,0.4-0.8,0.6-1.4,0.6c-1.5,0-2.7-1.2-2.7-2.7s1.2-2.7,2.7-2.7s2.7,1.2,2.7,2.7c0,1-0.5,1.9-1.3,2.4l-4.4-4.4c-0.3,0.4-0.8,0.6-1.4,0.6c-1.5,0-2.7-1.2-2.7-2.7s1.2-2.7,2.7-2.7s2.7,1.2,2.7,2.7c0,1-0.5,1.9-1.3,2.4l-4.4-4.4c-0.3,0.4-0.8,0.6-1.4,0.6c-1.5,0-2.7-1.2-2.7-2.7s1.2-2.7,2.7-2.7s2.7,1.2,2.7,2.7c0,1-0.5,1.9-1.3,2.4l-4.4-4.4c-0.3,0.4-0.8,0.6-1.4,0.6c-1.5,0-2.7-1.2-2.7-2.7s1.2-2.7,2.7-2.7s2.7,1.2,2.7,2.7c0,1-0.5,1.9-1.3,2.4l-4.4-4.4c-0.3,0.4-0.8,0.6-1.4,0.6c-1.5,0-2.7-1.2-2.7-2.7s1.2-2.7,2.7-2.7s2.7,1.2,2.7,2.7c0,1-0.5,1.9-1.3,2.4l-4.4-4.4c-0.3,0.4-0.8,0.6-1.4,0.6c-1.5,0-2.7-1.2-2.7-2.7s1.2-2.7,2.7-2.7s2.7,1.2,2.7,2.7c0,1-0.5,1.9-1.3,2.4l-4.4-4.4c-0.3,0.4-0.8,0.6-1.4,0.6c-1.5,0-2.7-1.2-2.7-2.7s1.2-2.7,2.7-2.7s2.7,1.2,2.7,2.7c0,1-0.5,1.9-1.3,2.4l-4.4-4.4c-0.3,0.4-0.8,0.6-1.4,0.6c-1.5,0-2.7-1.2-2.7-2.7s1.2-2.7,2.7-2.7s2.7,1.2,2.7,2.7c0,1-0.5,1.9-1.3,2.4l-4.4-4.4c-0.3,0.4-0.8,0.6-1.4,0.6c-1.5,0-2.7-1.2-2.7-2.7s1.2-2.7,2.7-2.7s2.7,1.2,2.7,2.7c0,1-0.5,1.9-1.3,2.4l-4.4-4.4c-0.3,0.4-0.8,0.6-1.4,0.6c-1.5,0-2.7-1.2-2.7-2.7s1.2-2.7,2.7-2.7s2.7,1.2,2.7,2.7c0,1-0.5,1.9-1.3,2.4l-4.4-4.4c-0.3,0.4-0.8,0.6-1.4,0.6c-1.5,0-2.7-1.2-2.7-2.7s1.2-2.7,2.7-2.7s2.7,1.2,2.7,2.7c0,1-0.5,1.9-1.3,2.4l-4.4-4.4c-0.3,0.4-0.8,0.6-1.4,0.6c-1.5,0-2.7-1.2-2.7-2.7s1.2-2.7,2.7-2.7s2.7,1.2,2.7,2.7c0,1-0.5,1.9-1.3,2.4l-4.4-4.4c-0.3,0.4-0.8,0.6-1.4,0.6c-1.5,0-2.7-1.2-2.7-2.7s1.2-2.7,2.7-2.7s2.7,1.2,2.7,2.7c0,1-0.5,1.9-1.3,2.4l-4.4-4.4c-0.3,0.4-0.8,0.6-1.4,0.6c-1.5,0-2.7-1.2-2.7-2.7s1.2-2.7,2.7-2.7s2.7,1.2,2.7,2.7c0,1-0.5,1.9-1.3,2.4l-4.4-4.4c-0.3,0.4-0.8,0.6-1.4,0.6c-1.5,0-2.7-1.2-2.7-2.7s1.2-2.7,2.7-2.7s2.7,1.2,2.7,2.7c0,1-0.5,1.9-1.3,2.4l-4.4-4.4c-0.3,0.4-0.8,0.6-1.4,0.6c-1.5,0-2.7-1.2-2.7-2.7s1.2-2.7,2.7-2.7s2.7,1.2,2.7,2.7c0,1-0.5,1.9-1.3,2.4l-4.4-4.4c-0.3,0.4-0.8,0.6-1.4,0.6c-1.5,0-2.7-1.2-2.7-2.7s1.2-2.7,2.7-2.7s2.7,1.2,2.7,2.7c0,1-0.5,1.9-1.3,2.4l-4.4-4.4c-0.3,0.4-0.8,0.6-1.4,0.6c-1.5,0-2.7-1.2-2.7-2.7s1.2-2.7,2.7-2.7s2.7,1.2,2.7,2.7c0,1-0.5,1.9-1.3,2.4l-4.4-4.4c-0.3,0.4-0.8,0.6-1.4,0.6c-1.5,0-2.7-1.2-2.7-2.7s1.2-2.7,2.7-2.7s2.7,1.2,2.7,2.7c0,1-0.5,1.9-1.3,2.4l-4.4-4.4c-0.3,0.4-0.8,0.6-1.4,0.6c-1.5,0-2.7-1.2-2.7-2.7s1.2-2.7,2.7-2.7s2.7,1.2,2.7,2.7c0,1-0.5,1.9-1.3,2.4l-4.4-4.4c-0.3,0.4-0.8,0.6-1.4,0.6c-1.5,0-2.7-1.2-2.7-2.7s1.2-2.7,2.7-2.7s2.7,1.2,2.7,2.7c0,1-0.5,1.9-1.3,2.4l-4.4-4.4c-0.3,0.4-0.8,0.6-1.4,0.6c-1.5,0-2.7-1.2-2.7-2.7s1.2-2.7,2.7-2.7s2.7,1.2,2.7,2.7c0,1-0.5,1.9-1.3,2.4l-4.4-4.4c-0.3,0.4-0.8,0.6-1.4,0.6c-1.5,0-2.7-1.2-2.7-2.7s1.2-2.7,2.7-2.7s2.7,1.2,2.7,2.7c0,1-0.5,1.9-1.3,2.4l-4.4-4.4c-0.3,0.4-0.8,0.6-1.4,0.6c-1.5,0-2.7-1.2-2.7-2.7s1.2-2.7,2.7-2.7s2.7,1.2,2.7,2.7c0,1-0.5,1.9-1.3,2.4l-4.4-4.4c-0.3,0.4-0.8,0.6-1.4,0.6c-1.5,0-2.7-1.2-2.7-2.7s1.2-2.7,2.7-2.7s2.7,1.2,2.7,2.7c0,1-0.5,1.9-1.3,2.4l-4.4-4.4c-0.3,0.4-0.8,0.6-1.4,0.6c-1.5,0-2.7-1.2-2.7-2.7s1.2-2.7,2.7-2.7s2.7,1.2,2.7,2.7c0,1-0.5,1.9-1.3,2.4l-4.4-4.4c-0.3,0.4-0.8,0.6-1.4,0.6c-1.5,0-2.7-1.2-2.7-2.7s1.2-2.7,2.7-2.7s2.7,1.2,2.7,2.7c0,1-0.5,1.9-1.3,2.4l-4.4-4.4c-0.3,0.4-0.8,0.6-1.4,0.6c-1.5,0-2.7-1.2-2.7-2.7s1.2-2.7,2.7-2.7s2.7,1.2,2.7,2.7c0,1-0.5,1.9-1.3,2.4l-4.4-4.4c-0.3,0.4-0.8,0.6-1.4,0.6c-1.5,0-2.7-1.2-2.7-2.7s1.2-2.7,2.7-2.7s2.7,1.2,2.7,2.7c0,1-0.5,1.9-1.3,2.4l-4.4-4.4c-0.3,0.4-0.8,0.6-1.4,0.6c-1.5,0-2.7-1.2-2.7-2.7s1.2-2.7,2.7-2.7s2.7,1.2,2.7,2.7c0,1-0.5,1.9-1.3,2.4l-4.4-4.4c-0.3,0.4-0.8,0.6-1.4,0.6c-1.5,0-2.7-1.2-2.7-2.7s1.2-2.7,2.7-2.7s2.7,1.2,2.7,2.7c0,1-0.5,1.9-1.3,2.4l-4.4-4.4c-0.3,0.4-0.8,0.6-1.4,0.6c-1.5,0-2.7-1.2-2.7-2.7s1.2-2.7,2.7-2.7s2.7,1.2,2.7,2.7c0,1-0.5,1.9-1.3,2.4l-4.4-4.4c-0.3,0.4-0.8,0.6-1.4,0.6c-1.5,0-2.7-1.2-2.7-2.7s1.2-2.7,2.7-2.7s2.7,1.2,2.7,2.7c0,1-0.5,1.9-1.3,2.4l-4.4-4.4c-0.3,0.4-0.8,0.6-1.4,0.6c-1.5,0-2.7-1.2-2.7-2.7s1.2-2.7,2.7-2.7s2.7,1.2,2.7,2.7c0,1-0.5,1.9-1.3,2.4l-4.4-4.4c-0.3,0.4-0.8,0.6-1.4,0.6c-1.5,0-2.7-1.2-2.7-2.7s1.2-2.7,2.7-2.7s2.7,1.2,2.7,2.7c0,1-0.5,1.9-1.3,2.4l-4.4-4.4c-0.3,0.4-0.8,0.6-1.4,0.6c-1.5,0-2.7-1.2-2.7-2.7s1.2-2.7,2.7-2.7s2.7,1.2,2.7,2.7c0,1-0.5,1.9-1.3,2.4l-4.4-4.4c-0.3,0.4-0.8,0.6-1.4,0.6c-1.5,0-2.7-1.2-2.7-2.7s1.2-2.7,2.7-2.7s2.7,1.2,2.7,2.7c0,1-0.5,1.9-1.3,2.4l-4.4-4.4c-0.3,0.4-0.8,0.6-1.4,0.6c-1.5,0-2.7-1.2-2.7-2.7s1.2-2.7,2.7-2.7s2.7,1.2,2.7,2.7c0,1-0.5,1.9-1.3,2.4l-4.4-4.4c-0.3,0.4-0.8,0.6-1.4,0.6c-1.5,0-2.7-1.2-2.7-2.7s1.2-2.7,2.7-2.7s2.7,1.2,2.7,2.7c0,1-0.5,1.9-1.3,2.4l-4.4-4.4c-0.3,0.4-0.8,0.6-1.4,0.6c-1.5,0-2.7-1.2-2.7-2.7s1.2-2.7,2.7-2.7s2.7,1.2,2.7,2.7c0,1-0.5,1.9-1.3,2.4l-4.4-4.4c-0.3,0.4-0.8,0.6-1.4,0.6c-1.5,0-2.7-1.2-2.7-2.7s1.2-2.7,2.7-2.7s2.7,1.2,2.7,2.7c0,1-0.5,1.9-1.3,2.4l-4.4-4.4c-0.3,0.4-0.8,0.6-1.4,0.6c-1.5,0-2.7-1.2-2.7-2.7s1.2-2.7,2.7-2.7s2.7,1.2,2.7,2.7c0,1-0.5,1.9-1.3,2.4l-4.4-4.4c-0.3,0.4-0.8,0.6-1.4,0.6c-1.5,0-2.7-1.2-2.7-2.7s1.2-2.7,2.7-2.7s2.7,1.2,2.7,2.7c0,1-0.5,1.9-1.3,2.4l-4.4-4.4c-0.3,0.4-0.8,0.6-1.4,0.6c-1.5,0-2.7-1.2-2.7-2.7s1.2-2.7,2.7-2.7s2.7,1.2,2.7,2.7c0,1-0.5,1.9-1.3,2.4l-4.4-4.4c-0.3,0.4-0.8,0.6-1.4,0.6c-1.5,0-2.7-1.2-2.7-2.7s1.2-2.7,2.7-2.7s2.7,1.2,2.7,2.7c0,1-0.5,1.9-1.3,2.4l-4.4-4.4c-0.3,0.4-0.8,0.6-1.4,0.6c-1.5,0-2.7-1.2-2.7-2.7s1.2-2.7,2.7-2.7s2.7,1.2,2.7,2.7c0,1-0.5,1.9-1.3,2.4l-4.4-4.4c-0.3,0.4-0.8,0.6-1.4,0.6c-1.5,0-2.7-1.2-2.7-2.7s1.2-2.7,2.7-2.7s2.7,1.2,2.7,2.7c0,1-0.5,1.9-1.3,2.4l-4.4-4.4c-0.3,0.4-0.8,0.6-1.4,0.6c-1.5,0-2.7-1.2-2.7-2.7s1.2-2.7,2.7-2.7s2.7,1.2,2.7,2.7c0,1-0.5,1.9-1.3,2.4l-4.4-4.4c-0.3,0.4-0.8,0.6-1.4,0.6c-1.5,0-2.7-1.2-2.7-2.7s1.2-2.7,2.7-2.7s2.7,1.2,2.7,2.7c0,1-0.5,1.9-1.3,2.4l-4.4-4.4c-0.3,0.4-0.8,0.6-1.4,0.6c-1.5,0-2.7-1.2-2.7-2.7s1.2-2.7,2.7-2.7s2.7,1.2,2.7,2.7c0,1-0.5,1.9-1.3,2.4l-4.4-4.4c-0.3,0.4-0.8,0.6-1.4,0.6c-1.5,0-2.7-1.2-2.7-2.7s1.2-2.7,2.7-2.7s2.7,1.2,2.7,2.7c0,1-0.5,1.9-1.3,2.4l-4.4-4.4c-0.3,0.4-0.8,0.6-1.4,0.6c-1.5,0-2.7-1.2-2.7-2.7s1.2-2.7,2.7-2.7s2.7,1.2,2.7,2.7c0,1-0.5,1.9-1.3,2.4l-4.4-4.4c-0.3,0.4-0.8,0.6-1.4,0.6c-1.5,0-2.7-1.2-2.7-2.7s1.2-2.7,2.7-2.7s2.7,1.2,2.7,2.7c0,1-0.5,1.9-1.3,2.4l-4.4-4.4c-0.3,0.4-0.8,0.6-1.4,0.6c-1.5,0-2.7-1.2-2.7-2.7s1.2-2.7,2.7-2.7s2.7,1.2,2.7,2.7c0,1-0.5,1.9-1.3,2.4l-4.4-4.4c-0.3,0.4-0.8,0.6-1.4,0.6c-1.5,0-2.7-1.2-2.7-2.7s1.2-2.7,2.7-2.7s2.7,1.2,2.7,2.7c0,1-0.5,1.9-1.3,2.4l-4.4-4.4c-0.3,0.4-0.8,0.6-1.4,0.6c-1.5,0-2.7-1.2-2.7-2.7s1.2-2.7,2.7-2.7s2.7,1.2,2.7,2.7c0,1-0.5,1.9-1.3,2.4l-4.4-4.4c-0.3,0.4-0.8,0.6-1.4,0.6c-1.5,0-2.7-1.2-2.7-2.7s1.2-2.7,2.7-2.7s2.7,1.2,2.7,2.7c0,1-0.5,1.9-1.3,2.4l-4.4-4.4c-0.3,0.4-0.8,0.6-1.4,0.6c-1.5,0-2.7-1.2-2.7-2.7s1.2-2.7,2.7-2.7s2.7,1.2,2.7,2.7c0,1-0.5,1.9-1.3,2.4l-4.4-4.4c-0.3,0.4-0.8,0.6-1.4,0.6c-1.5,0-2.7-1.2-2.7-2.7s1.2-2.7,2.7-2.7s2.7,1.2,2.7,2.7c0,1-0.5,1.9-1.3,2.4l-4.4-4.4c-0.3,0.4-0.8,0.6-1.4,0.6c-1.5,0-2.7-1.2-2.7-2.7s1.2-2.7,2.7-2.7s2.7,1.2,2.7,2.7c0,1-0.5,1.9-1.3,2.4l-4.4-4.4c-0.3,0.4-0.8,0.6-1.4,0.6c-1.5,0-2.7-1.2-2.7-2.7s1.2-2.7,2.7-2.7s2.7,1.2,2.7,2.7c0,1-0.5,1.9-1.3,2.4l-4.4-4.4c-0.3,0.4-0.8,0.6-1.4,0.6c-1.5,0-2.7-1.2-2.7-2.7s1.2-2.7,2.7-2.7s2.7,1.2,2.7,2.7c0,1-0.5,1.9-1.3,2.4l-4.4-4.4c-0.3,0.4-0.8,0.6-1.4,0.6c-1.5,0-2.7-1.2-2.7-2.7s1.2-2.7,2.7-2.7s2.7,1.2,2.7,2.7c0,1-0.5,1.9-1.3,2.4l-4.4-4.4c-0.3,0.4-0.8,0.6-1.4,0.6c-1.5,0-2.7-1.2-2.7-2.7s1.2-2.7,2.7-2.7s2.7,1.2,2.7,2.7c0,1-0.5,1.9-1.3,2.4l-4.4-4.4c-0.3,0.4-0.8,0.6-1.4,0.6c-1.5,0-2.7-1.2-2.7-2.7s1.2-2.7,2.7-2.7s2.7,1.2,2.7,2.7c0,1-0.5,1.9-1.3,2.4l-4.4-4.4c-0.3,0.4-0.8,0.6-1.4,0.6c-1.5,0-2.7-1.2-2.7-2.7s1.2-2.7,2.7-2.7s2.7,1.2,2.7,2.7c0,1-0.5,1.9-1.3,2.4l-4.4-4.4c-0.3,0.4-0.8,0.6-1.4,0.6c-1.5,0-2.7-1.2-2.7-2.7s1.2-2.7,2.7-2.7s2.7,1.2,2.7,2.7c0,1-0.5,1.9-1.3,2.4l-4.4-4.4c-0.3,0.4-0.8,0.6-1.4,0.6c-1.5,0-2.7-1.2-2.7-2.7s1.2-2.7,2.7-2.7s2.7,1.2,2.7,2.7c0,1-0.5,1.9-1.3,2.4l-4.4-4.4c-0.3,0.4-0.8,0.6-1.4,0.6c-1.5,0-2.7-1.2-2.7-2.7s1.2-2.7,2.7-2.7s2.7,1.2,2.7,2.7c0,1-0.5,1.9-1.3,2.4l-4.4-4.4c-0.3,0.4-0.8,0.6-1.4,0.6c-1.5,0-2.7-1.2-2.7-2.7s1.2-2.7,2.7-2.7s2.7,1.2,2.7,2.7c0,1-0.5,1.9-1.3,2.4l-4.4-4.4c-0.3,0.4-0.8,0.6-1.4,0.6c-1.5,0-2.7-1.2-2.7-2.7s1.2-2.7,2.7-2.7s2.7,1.2,2.7,2.7c0,1-0.5,1.9-1.3,2.4l-4.4-4.4c-0.3,0.4-0.8,0.6-1.4,0.6c-1.5,0-2.7-1.2-2.7-2.7s1.2-2.7,2.7-2.7s2.7,1.2,2.7,2.7c0,1-0.5,1.9-1.3,2.4l-4.4-4.4c-0.3,0.4-0.8,0.6-1.4,0.6c-1.5,0-2.7-1.2-2.7-2.7s1.2-2.7,2.7-2.7s2.7,1.2,2.7,2.7c0,1-0.5,1.9-1.3,2.4l-4.4-4.4c-0.3,0.4-0.8,0.6-1.4,0.6c-1.5,0-2.7-1.2-2.7-2.7s1.2-2.7,2.7-2.7s2.7,1.2,2.7,2.7c0,1-0.5,1.9-1.3,2.4l-4.4-4.4c-0.3,0.4-0.8,0.6-1.4,0.6c-1.5,0-2.7-1.2-2.7-2.7s1.2-2.7,2.7-2.7s2.7,1.2,2.7,2.7c0,1-0.5,1.9-1.3,2.4l-4.4-4.4c-0.3,0.4-0.8,0.6-1.4,0.6c-1.5,0-2.7-1.2-2.7-2.7s1.2-2.7,2.7-2.7s2.7,1.2,2.7,2.7c0,1-0.5,1.9-1.3,2.4l-4.4-4.4c-0.3,0.4-0.8,0.6-1.4,0.6c-1.5,0-2.7-1.2-2.7-2.7s1.2-2.7,2.7-2.7s2.7,1.2,2.7,2.7c0,1-0.5,1.9-1.3,2.4l-4.4-4.4c-0.3,0.4-0.8,0.6-1.4,0.6c-1.5,0-2.7-1.2-2.7-2.7s1.2-2.7,2.7-2.7s2.7,1.2,2.7,2.7c0,1-0.5,1.9-1.3,2.4l-4.4-4.4c-0.3,0.4-0.8,0.6-1.4,0.6c-1.5,0-2.7-1.2-2.7-2.7s1.2-2.7,2.7-2.7s2.7,1.2,2.7,2.7c0,1-0.5,1.9-1.3,2.4l-4.4-4.4c-0.3,0.4-0.8,0.6-1.4,0.6c-1.5,0-2.7-1.2-2.7-2.7s1.2-2.7,2.7-2.7s2.7,1.2,2.7,2.7c0,1-0.5,1.9-1.3,2.4l-4.4-4.4c-0.3,0.4-0.8,0.6-1.4,0.6c-1.5,0-2.7-1.2-2.7-2.7s1.2-2.7,2.7-2.7s2.7,1.2,2.7,2.7c0,1-0.5,1.9-1.3,2.4l-4.4-4.4c-0.3,0.4-0.8,0.6-1.4,0.6c-1.5,0-2.7-1.2-2.7-2.7s1.2-2.7,2.7-2.7s2.7,1.2,2.7,2.7c0,1-0.5,1.9-1.3,2.4l-4.4-4.4c-0.3,0.4-0.8,0.6-1.4,0.6c-1.5,0-2.7-1.2-2.7-2.7s1.2-2.7,2.7-2.7s2.7,1.2,2.7,2.7c0,1-0.5,1.9-1.3,2.4l-4.4-4.4c-0.3,0.4-0.8,0.6-1.4,0.6c-1.5,0-2.7-1.2-2.7-2.7s1.2-2.7,2.7-2.7s2.7,1.2,2.7,2.7c0,1-0.5,1.9-1.3,2.4l-4.4-4.4c-0.3,0.4-0.8,0.6-1.4,0.6c-1.5,0-2.7-1.2-2.7-2.7s1.2-2.7,2.7-2.7s2.7,1.2,2.7,2.7c0,1-0.5,1.9-1.3,2.4l-4.4-4.4c-0.3,0.4-0.8,0.6-1.4,0.6c-1.5,0-2.7-1.2-2.7-2.7s1.2-2.7,2.7-2.7s2.7,1.2,2.7,2.7c0,1-0.5,1.9-1.3,2.4l-4.4-4.4c-0.3,0.4-0.8,0.6-1.4,0.6c-1.5,0-2.7-1.2-2.7-2.7s1.2-2.7,2.7-2.7s2.7,1.2,2.7,2.7c0,1-0.5,1.9-1.3,2.4l-4.4-4.4c-0.3,0.4-0.8,0.6-1.4,0.6c-1.5,0-2.7-1.2-2.7-2.7s1.2-2.7,2.7-2.7s2.7,1.2,2.7,2.7c0,1-0.5,1.9-1.3,2.4l-4.4-4.4c-0.3,0.4-0.8,0.6-1.4,0.6c-1.5,0-2.7-1.2-2.7-2.7s1.2-2.7,2.7-2.7s2.7,1.2,2.7,2.7c0,1-0.5,1.9-1.3,2.4l-4.4-4.4c-0.3,0.4-0.8,0.6-1.4,0.6c-1.5,0-2.7-1.2-2.7-2.7s1.2-2.7,2.7-2.7s2.7,1.2,2.7,2.7c0,1-0.5,1.9-1.3,2.4l-4.4-4.4c-0.3,0.4-0.8,0.6-1.4,0.6c-1.5,0-2.7-1.2-2.7-2.7s1.2-2.7,2.7-2.7s2.7,1.2,2.7,2.7c0,1-0.5,1.9-1.3,2.4l-4.4-4.4c-0.3,0.4-0.8,0.6-1.4,0.6c-1.5,0-2.7-1.2-2.7-2.7s1.2-2.7,2.7-2.7s2.7,1.2,2.7,2.7c0,1-0.5,1.9-1.3,2.4l-4.4-4.4c-0.3,0.4-0.8,0.6-1.4,0.6c-1.5,0-2.7-1.2-2.7-2.7s1.2-2.7,2.7-2.7s2.7,1.2,2.7,2.7c0,1-0.5,1.9-1.3,2.4l-4.4-4.4c-0.3,0.4-0.8,0.6-1.4,0.6c-1.5,0-2.7-1.2-2.7-2.7s1.2-2.7,2.7-2.7s2.7,1.2,2.7,2.7c0,1-0.5,1.9-1.3,2.4l-4.4-4.4c-0.3,0.4-0.8,0.6-1.4,0.6c-1.5,0-2.7-1.2-2.7-2.7s1.2-2.7,2.7-2.7s2.7,1.2,2.7,2.7c0,1-0.5,1.9-1.3,2.4l-4.4-4.4c-0.3,0.4-0.8,0.6-1.4,0.6c-1.5,0-2.7-1.2-2.7-2.7s1.2-2.7,2.7-2.7s2.7,1.2,2.7,2.7c0,1-0.5,1.9-1.3,2.4l-4.4-4.4c-0.3,0.4-0.8,0.6-1.4,0.6c-1.5,0-2.7-1.2-2.7-2.7s1.2-2.7,2.7-2.7s2.7,1.2,2.7,2.7c0,1-0.5,1.9-1.3,2.4l-4.4-4.4c-0.3,0.4-0.8,0.6-1.4,0.6c-1.5,0-2.7-1.2-2.7-2.7s1.2-2.7,2.7-2.7s2.7,1.2,2.7,2.7c0,1-0.5,1.9-1.3,2.4l-4.4-4.4c-0.3,0.4-0.8,0.6-1.4,0.6c-1.5,0-2.7-1.2-2.7-2.7s1.2-2.7,2.7-2.7s2.7,1.2,2.7,2.7c0,1-0.5,1.9-1.3,2.4l-4.4-4.4c-0.3,0.4-0.8,0.6-1.4,0.6c-1.5,0-2.7-1.2-2.7-2.7s1.2-2.7,2.7-2.7s2.7,1.2,2.7,2.7c0,1-0.5,1.9-1.3,2.4l-4.4-4.4c-0.3,0.4-0.8,0.6-1.4,0.6c-1.5,0-2.7-1.2-2.7-2.7s1.2-2.7,2.7-2.7s2.7,1.2,2.7,2.7c0,1-0.5,1.9-1.3,2.4l-4.4-4.4c-0.3,0.4-0.8,0.6-1.4,0.6c-1.5,0-2.7-1.2-2.7-2.7s1.2-2.7,2.7-2.7s2.7,1.2,2.7,2.7c0,1-0.5,1.9-1.3,2.4l-4.4-4.4c-0.3,0.4-0.8,0.6-1.4,0.6c-1.5,0-2.7-1.2-2.7-2.7s1.2-2.7,2.7-2.7s2.7,1.2,2.7,2.7c0,1-0.5,1.9-1.3,2.4l-4.4-4.4c-0.3,0.4-0.8,0.6-1.4,0.6c-1.5,0-2.7-1.2-2.7-2.7s1.2-2.7,2.7-2.7s2.7,1.2,2.7,2.7c0,1-0.5,1.9-1.3,2.4l-4.4-4.4c-0.3,0.4-0.8,0.6-1.4,0.6c-1.5,0-2.7-1.2-2.7-2.7s1.2-2.7,2.7-2.7s2.7,1.2,2.7,2.7c0,1-0.5,1.9-1.3,2.4l-4.4-4.4c-0.3,0.4-0.8,0.6-1.4,0.6c-1.5,0-2.7-1.2-2.7-2.7s1.2-2.7,2.7-2.7s2.7,1.2,2.7,2.7c0,1-0.5,1.9-1.3,2.4l-4.4-4.4c-0.3,0.4-0.8,0.6-1.4,0.6c-1.5,0-2.7-1.2-2.7-2.7s1.2-2.7,2.7-2.7s2.7,1.2,2.7,2.7c0,1-0.5,1.9-1.3,2.4l-4.4-4.4c-0.3,0.4-0.8,0.6-1.4,0.6c-1.5,0-2.7-1.2-2.7-2.7s1.2-2.7,2.7-2.7s2.7,1.2,2.7,2.7c0,1-0.5,1.9-1.3,2.4l-4.4-4.4c-0.3,0.4-0.8,0.6-1.4,0.6c-1.5,0-2.7-1.2-2.7-2.7s1.2-2.7,2.7-2.7s2.7,1.2,2.7,2.7c0,1-0.5,1.9-1.3,2.4l-4.4-4.4c-0.3,0.4-0.8,0.6-1.4,0.6c-1.5,0-2.7-1.2-2.7-2.7s1.2-2.7,2.7-2.7s2.7,1.2,2.7,2.7c0,1-0.5,1.9-1.3,2.4l-4.4-4.4c-0.3,0.4-0.8,0.6-1.4,0.6c-1.5,0-2.7-1.2-2.7-2.7s1.2-2.7,2.7-2.7s2.7,1.2,2.7,2.7c0,1-0.5,1.9-1.3,2.4l-4.4-4.4c-0.3,0.4-0.8,0.6-1.4,0.6c-1.5,0-2.7-1.2-2.7-2.7s1.2-2.7,2.7-2.7s2.7,1.2,2.7,2.7c0,1-0.5,1.9-1.3,2.4l-4.4-4.4c-0.3,0.4-0.8,0.6-1.4,0.6c-1.5,0-2.7-1.2-2.7-2.7s1.2-2.7,2.7-2.7s2.7,1.2,2.7,2.7c0,1-0.5,1.9-1.3,2.4l-4.4-4.4c-0.3,0.4-0.8,0.6-1.4,0.6c-1.5,0-2.7-1.2-2.7-2.7s1.2-2.7,2.7-2.7s2.7,1.2,2.7,2.7c0,1-0.5,1.9-1.3,2.4l-4.4-4.4c-0.3,0.4-0.8,0.6-1.4,0.6c-1.5,0-2.7-1.2-2.7-2.7s1.2-2.7,2.7-2.7s2.7,1.2,2.7,2.7c0,1-0.5,1.9-1.3,2.4l-4.4-4.4c-0.3,0.4-0.8,0.6-1.4,0.6c-1.5,0-2.7-1.2-2.7-2.7s1.2-2.7,2.7-2.7s2.7,1.2,2.7,2.7c0,1-0.5,1.9-1.3,2.4l-4.4-4.4c-0.3,0.4-0.8,0.6-1.4,0.6c-1.5,0-2.7-1.2-2.7-2.7s1.2-2.7,2.7-2.7s2.7,1.2,2.7,2.7c0,1-0.5,1.9-1.3,2.4l-4.4-4.4c-0.3,0.4-0.8,0.6-1.4,0.6c-1.5,0-2.7-1.2-2.7-2.7s1.2-2.7,2.7-2.7s2.7,1.2,2.7,2.7c0,1-0.5,1.9-1.3,2.4l-4.4-4.4c-0.3,0.4-0.8,0.6-1.4,0.6c-1.5,0-2.7-1.2-2.7-2.7s1.2-2.7,2.7-2.7s2.7,1.2,2.7,2.7c0,1-0.5,1.9-1.3,2.4l-4.4-4.4c-0.3,0.4-0.8,0.6-1.4,0.6c-1.5,0-2.7-1.2-2.7-2.7s1.2-2.7,2.7-2.7s2.7,1.2,2.7,2.7c0,1-0.5,1.9-1.3,2.4l-4.4-4.4c-0.3,0.4-0.8,0.6-1.4,0.6c-1.5,0-2.7-1.2-2.7-2.7s1.2-2.7,2.7-2.7s2.7,1.2,2.7,2.7c0,1-0.5,1.9-1.3,2.4l-4.4-4.4c-0.3,0.4-0.8,0.6-1.4,0.6c-1.5,0-2.7-1.2-2.7-2.7s1.2-2.7,2.7-2.7s2.7,1.2,2.7,2.7c0,1-0.5,1.9-1.3,2.4l-4.4-4.4c-0.3,0.4-0.8,0.6-1.4,0.6c-1.5,0-2.7-1.2-2.7-2.7s1.2-2.7,2.7-2.7s2.7,1.2,2.7,2.7c0,1-0.5,1.9-1.3,2.4l-4.4-4.4c-0.3,0.4-0.8,0.6-1.4,0.6c-1.5,0-2.7-1.2-2.7-2.7s1.2-2.7,2.7-2.7s2.7,1.2,2.7,2.7c0,1-0.5,1.9-1.3,2.4l-4.4-4.4c-0.3,0.4-0.8,0.6-1.4,0.6c-1.5,0-2.7-1.2-2.7-2.7s1.2-2.7,2.7-2.7s2.7,1.2,2.7,2.7c0,1-0.5,1.9-1.3,2.4l-4.4-4.4c-0.3,0.4-0.8,0.6-1.4,0.6c-1.5,0-2.7-1.2-2.7-2.7s1.2-2.7,2.7-2.7s2.7,1.2,2.7,2.7c0,1-0.5,1.9-1.3,2.4l-4.4-4.4c-0.3,0.4-0.8,0.6-1.4,0.6c-1.5,0-2.7-1.2-2.7-2.7s1.2-2.7,2.7-2.7s2.7,1.2,2.7,2.7c0,1-0.5,1.9-1.3,2.4l-4.4-4.4c-0.3,0.4-0.8,0.6-1.4,0.6c-1.5,0-2.7-1.2-2.7-2.7s1.2-2.7,2.7-2.7s2.7,1.2,2.7,2.7c0,1-0.5,1.9-1.3,2.4l-4.4-4.4c-0.3,0.4-0.8,0.6-1.4,0.6c-1.5,0-2.7-1.2-2.7-2.7s1.2-2.7,2.7-2.7s2.7,1.2,2.7,2.7c0,1-0.5,1.9-1.3,2.4l-4.4-4.4c-0.3,0.4-0.8,0.6-1.4,0.6c-1.5,0-2.7-1.2-2.7-2.7s1.2-2.7,2.7-2.7s2.7,1.2,2.7,2.7c0,1-0.5,1.9-1.3,2.4l-4.4-4.4c-0.3,0.4-0.8,0.6-1.4,0.6c-1.5,0-2.7-1.2-2.7-2.7s1.2-2.7,2.7-2.7s2.7,1.2,2.7,2.7c0,1-0.5,1.9-1.3,2.4l-4.4-4.4c-0.3,0.4-0.8,0.6-1.4,0.6c-1.5,0-2.7-1.2-2.7-2.7s1.2-2.7,2.7-2.7s2.7,1.2,2.7,2.7c0,1-0.5,1.9-1.3,2.4l-4.4-4.4c-0.3,0.4-0.8,0.6-1.4,0.6c-1.5,0-2.7-1.2-2.7-2.7s1.2-2.7,2.7-2.7s2.7,1.2,2.7,2.7c0,1-0.5,1.9-1.3,2.4l-4.4-4.4c-0.3,0.4-0.8,0.6-1.4,0.6c-1.5,0-2.7-1.2-2.7-2.7s1.2-2.7,2.7-2.7s2.7,1.2,2.7,2.7c0,1-0.5,1.9-1.3,2.4l-4.4-4.4c-0.3,0.4-0.8,0.6-1.4,0.6c-1.5,0-2.7-1.2-2.7-2.7s1.2-2.7,2.7-2.7s2.7,1.2,2.7,2.7c0,1-0.5,1.9-1.3,2.4l-4.4-4.4c-0.3,0.4-0.8,0.6-1.4,0.6c-1.5,0-2.7-1.2-2.7-2.7s1.2-2.7,2.7-2.7s2.7,1.2,2.7,2.7c0,1-0.5,1.9-1.3,2.4l-4.4-4.4c-0.3,0.4-0.8,0.6-1.4,0.6c-1.5,0-2.7-1.2-2.7-2.7s1.2-2.7,2.7-2.7s2.7,1.2,2.7,2.7c0,1-0.5,1.9-1.3,2.4l-4.4-4.4c-0.3,0.4-0.8,0.6-1.4,0.6c-1.5,0-2.7-1.2-2.7-2.7s1.2-2.7,2.7-2.7s2.7,1.2,2.7,2.7c0,1-0.5,1.9-1.3,2.4l-4.4-4.4c-0.3,0.4-0.8,0.6-1.4,0.6c-1.5,0-2.7-1.2-2.7-2.7s1.2-2.7,2.7-2.7s2.7,1.2,2.7,2.7c0,1-0.5,1.9-1.3,2.4l-4.4-4.4c-0.3,0.4-0.8,0.6-1.4,0.6c-1.5,0-2.7-1.2-2.7-2.7s1.2-2.7,2.7-2.7s2.7,1.2,2.7,2.7c0,1-0.5,1.9-1.3,2.4l-4.4-4.4c-0.3,0.4-0.8,0.6-1.4,0.6c-1.5,0-2.7-1.2-2.7-2.7s1.2-2.7,2.7-2.7s2.7,1.2,2.7,2.7c0,1-0.5,1.9-1.3,2.4l-4.4-4.4c-0.3,0.4-0.8,0.6-1.4,0.6c-1.5,0-2.7-1.2-2.7-2.7s1.2-2.7,2.7-2.7s2.7,1.2,2.7,2.7c0,1-0.5,1.9-1.3,2.4l-4.4-4.4c-0.3,0.4-0.8,0.6-1.4,0.6c-1.5,0-2.7-1.2-2.7-2.7s1.2-2.7,2.7-2.7s2.7,1.2,2.7,2.7c0,1-0.5,1.9-1.3,2.4l-4.4-4.4c-0.3,0.4-0.8,0.6-1.4,0.6c-1.5,0-2.7-1.2-2.7-2.7s1.2-2.7,2.7-2.7s2.7,1.2,2.7,2.7c0,1-0.5,1.9-1.3,2.4l-4.4-4.4c-0.3,0.4-0.8,0.6-1.4,0.6c-1.5,0-2.7-1.2-2.7-2.7s1.2-2.7,2.7-2.7s2.7,1.2,2.7,2.7c0,1-0.5,1.9-1.3,2.4l-4.4-4.4c-0.3,0.4-0.8,0.6-1.4,0.6c-1.5,0-2.7-1.2-2.7-2.7s1.2-2.7,2.7-2.7s2.7,1.2,2.7,2.7c0,1-0.5,1.9-1.3,2.4l-4.4-4.4c-0.3,0.4-0.8,0.6-1.4,0.6c-1.5,0-2.7-1.2-2.7-2.7s1.2-2.7,2.7-2.7s2.7,1.2,2.7,2.7c0,1-0.5,1.9-1.3,2.4l-4.4-4.4c-0.3,0.4-0.8,0.6-1.4,0.6c-1.5,0-2.7-1.2-2.7-2.7s1.2-2.7,2.7-2.7s2.7,1.2,2.7,2.7c0,1-0.5,1.9-1.3,2.4l-4.4-4.4c-0.3,0.4-0.8,0.6-1.4,0.6c-1.5,0-2.7-1.2-2.7-2.7s1.2-2.7,2.7-2.7s2.7,1.2,2.7,2.7c0,1-0.5,1.9-1.3,2.4l-4.4-4.4c-0.3,0.4-0.8,0.6-1.4,0.6c-1.5,0-2.7-1.2-2.7-2.7s1.2-2.7,2.7-2.7s2.7,1.2,2.7,2.7c0,1-0.5,1.9-1.3,2.4l-4.4-4.4c-0.3,0.4-0.8,0.6-1.4,0.6c-1.5,0-2.7-1.2-2.7-2.7s1.2-2.7,2.7-2.7s2.7,1.2,2.7,2.7c0,1-0.5,1.9-1.3,2.4l-4.4-4.4c-0.3,0.4-0.8,0.6-1.4,0.6c-1.5,0-2.7-1.2-2.7-2.7s1.2-2.7,2.7-2.7s2.7,1.2,2.7,2.7c0,1-0.5,1.9-1.3,2.4l-4.4-4.4c-0.3,0.4-0.8,0.6-1.4,0.6c-1.5,0-2.7-1.2-2.7-2.7s1.2-2.7,2.7-2.7s2.7,1.2,2.7,2.7c0,1-0.5,1.9-1.3,2.4l-4.4-4.4c-0.3,0.4-0.8,0.6-1.4,0.6c-1.5,0-2.7-1.2-2.7-2.7s1.2-2.7,2.7-2.7s2.7,1.2,2.7,2.7c0,1-0.5,1.9-1.3,2.4l-4.4-4.4c-0.3,0.4-0.8,0.6-1.4,0.6c-1.5,0-2.7-1.2-2.7-2.7s1.2-2.7,2.7-2.7s2.7,1.2,2.7,2.7c0,1-0.5,1.9-1.3,2.4l-4.4-4.4c-0.3,0.4-0.8,0.6-1.4,0.6c-1.5,0-2.7-1.2-2.7-2.7s1.2-2.7,2.7-2.7s2.7,1.2,2.7,2.7c0,1-0.5,1.9-1.3,2.4l-4.4-4.4c-0.3,0.4-0.8,0.6-1.4,0.6c-1.5,0-2.7-1.2-2.7-2.7s1.2-2.7,2.7-2.7s2.7,1.2,2.7,2.7c0,1-0.5,1.9-1.3,2.4l-4.4-4.4c-0.3,0.4-0.8,0.6-1.4,0.6c-1.5,0-2.7-1.2-2.7-2.7s1.2-2.7,2.7-2.7s2.7,1.2,2.7,2.7c0,1-0.5,1.9-1.3,2.4l-4.4-4.4c-0.3,0.4-0.8,0.6-1.4,0.6c-1.5,0-2.7-1.2-2.7-2.7s1.2-2.7,2.7-2.7s2.7,1.2,2.7,2.7c0,1-0.5,1.9-1.3,2.4l-4.4-4.4c-0.3,0.4-0.8,0.6-1.4,0.6c-1.5,0-2.7-1.2-2.7-2.7s1.2-2.7,2.7-2.7s2.7,1.2,2.7,2.7c0,1-0.5,1.9-1.3,2.4l-4.4-4.4c-0.3,0.4-0.8,0.6-1.4,0.6c-1.5,0-2.7-1.2-2.7-2.7s1.2-2.7,2.7-2.7s2.7,1.2,2.7,2.7c0,1-0.5,1.9-1.3,2.4l-4.4-4.4c-0.3,0.4-0.8,0.6-1.4,0.6c-1.5,0-2.7-1.2-2.7-2.7s1.2-2.7,2.7-2.7s2.7,1.2,2.7,2.7c0,1-0.5,1.9-1.3,2.4l-4.4-4.4c-0.3,0.4-0.8,0.6-1.4,0.6c-1.5,0-2.7-1.2-2.7-2.7s1.2-2.7,2.7-2.7s2.7,1.2,2.7,2.7c0,1-0.5,1.9-1.3,2.4l-4.4-4.4c-0.3,0.4-0.8,0.6-1.4,0.6c-1.5,0-2.7-1.2-2.7-2.7s1.2-2.7,2.7-2.7s2.7,1.2,2.7,2.7c0,1-0.5,1.9-1.3,2.4l-4.4-4.4c-0.3,0.4-0.8,0.6-1.4,0.6c-1.5,0-2.7-1.2-2.7-2.7s1.2-2.7,2.7-2.7s2.7,1.2,2.7,2.7c0,1-0.5,1.9-1.3,2.4l-4.4-4.4c-0.3,0.4-0.8,0.6-1.4,0.6c-1.5,0-2.7-1.2-2.7-2.7s1.2-2.7,2.7-2.7s2.7,1.2,2.7,2.7c0,1-0.5,1.9-1.3,2.4l-4.4-4.4c-0.3,0.4-0.8,0.6-1.4,0.6c-1.5,0-2.7-1.2-2.7-2.7s1.2-2.7,2.7-2.7s2.7,1.2,2.7,2.7c0,1-0.5,1.9-1.3,2.4l-4.4-4.4c-0.3,0.4-0.8,0.6-1.4,0.6c-1.5,0-2.7-1.2-2.7-2.7s1.2-2.7,2.7-2.7s2.7,1.2,2.7,2.7c0,1-0.5,1.9-1.3,2.4l-4.4-4.4c-0.3,0.4-0.8,0.6-1.4,0.6c-1.5,0-2.7-1.2-2.7-2.7s1.2-2.7,2.7-2.7s2.7,1.2,2.7,2.7c0,1-0.5,1.9-1.3,2.4l-4.4-4.4c-0.3,0.4-0.8,0.6-1.4,0.6c-1.5,0-2.7-1.2-2.7-2.7s1.2-2.7,2.7-2.7s2.7,1.2,2.7,2.7c0,1-0.5,1.9-1.3,2.4l-4.4-4.4c-0.3,0.4-0.8,0.6-1.4,0.6c-1.5,0-2.7-1.2-2.7-2.7s1.2-2.7,2.7-2.7s2.7,1.2,2.7,2.7c0,1-0.5,1.9-1.3,2.4l-4.4-4.4c-0.3,0.4-0.8,0.6-1.4,0.6c-1.5,0-2.7-1.2-2.7-2.7s1.2-2.7,2.7-2.7s2.7,1.2,2.7,2.7c0,1-0.5,1.9-1.3,2.4l-4.4-4.4c-0.3,0.4-0.8,0.6-1.4,0.6c-1.5,0-2.7-1.2-2.7-2.7s1.2-2.7,2.7-2.7s2.7,1.2,2.7,2.7c0,1-0.5,1.9-1.3,2.4l-4.4-4.4c-0.3,0.4-0.8,0.6-1.4,0.6c-1.5,0-2.7-1.2-2.7-2.7s1.2-2.7,2.7-2.7s2.7,1.2,2.7,2.7c0,1-0.5,1.9-1.3,2.4l-4.4-4.4c-0.3,0.4-0.8,0.6-1.4,0.6c-1.5,0-2.7-1.2-2.7-2.7s1.2-2.7,2.7-2.7s2.7,1.2,2.7,2.7c0,1-0.5,1.9-1.3,2.4l-4.4-4.4c-0.3,0.4-0.8,0.6-1.4,0.6c-1.5,0-2.7-1.2-2.7-2.7s1.2-2.7,2.7-2.7s2.7,1.2,2.7,2.7c0,1-0.5,1.9-1.3,2.4l-4.4-4.4c-0.3,0.4-0.8,0.6-1.4,0.6c-1.5,0-2.7-1.2-2.7-2.7s1.2-2.7,2.7-2.7s2.7,1.2,2.7,2.7c0,1-0.5,1.9-1.3,2.4l-4.4-4.4c-0.3,0.4-0.8,0.6-1.4,0.6c-1.5,0-2.7-1.2-2.7-2.7s1.2-2.7,2.7-2.7s2.7,1.2,2.7,2.7c0,1-0.5,1.9-1.3,2.4l-4.4-4.4c-0.3,0.4-0.8,0.6-1.4,0.6c-1.5,0-2.7-1.2-2.7-2.7s1.2-2.7,2.7-2.7s2.7,1.2,2.7,2.7c0,1-0.5,1.9-1.3,2.4l-4.4-4.4c-0.3,0.4-0.8,0.6-1.4,0.6c-1.5,0-2.7-1.2-2.7-2.7s1.2-2.7,2.7-2.7s2.7,1.2,2.7,2.7c0,1-0.5,1.9-1.3,2.4l-4.4-4.4c-0.3,0.4-0.8,0.6-1.4,0.6c-1.5,0-2.7-1.2-2.7-2.7s1.2-2.7,2.7-2.7s2.7,1.2,2.7,2.7c0,1-0.5,1.9-1.3,2.4l-4.4-4.4c-0.3,0.4-0.8,0.6-1.4,0.6c-1.5,0-2.7-1.2-2.7-2.7s1.2-2.7,2.7-2.7s2.7,1.2,2.7,2.7c0,1-0.5,1.9-1.3,2.4l-4.4-4.4c-0.3,0.4-0.8,0.6-1.4,0.6c-1.5,0-2.7-1.2-2.7-2.7s1.2-2.7,2.7-2.7s2.7,1.2,2.7,2.7c0,1-0.5,1.9-1.3,2.4l-4.4-4.4c-0.3,0.4-0.8,0.6-1.4,0.6c-1.5,0-2.7-1.2-2.7-2.7s1.2-2.7,2.7-2.7s2.7,1.2,2.7,2.7c0,1-0.5,1.9-1.3,2.4l-4.4-4.4c-0.3,0.4-0.8,0.6-1.4,0.6c-1.5,0-2.7-1.2-2.7-2.7s1.2-2.7,2.7-2.7s2.7,1.2,2.7,2.7c0,1-0.5,1.9-1.3,2.4l-4.4-4.4c-0.3,0.4-0.8,0.6-1.4,0.6c-1.5,0-2.7-1.2-2.7-2.7s1.2-2.7,2.7-2.7s2.7,1.2,2.7,2.7c0,1-0.5,1.9-1.3,2.4l-4.4-4.4c-0.3,0.4-0.8,0.6-1.4,0.6c-1.5,0-2.7-1.2-2.7-2.7s1.2-2.7,2.7-2.7s2.7,1.2,2.7,2.7c0,1-0.5,1.9-1.3,2.4l-4.4-4.4c-0.3,0.4-0.8,0.6-1.4,0.6c-1.5,0-2.7-1.2-2.7-2.7s1.2-2.7,2.7-2.7s2.7,1.2,2.7,2.7c0,1-0.5,1.9-1.3,2.4l-4.4-4.4c-0.3,0.4-0.8,0.6-1.4,0.6c-1.5,0-2.7-1.2-2.7-2.7s1.2-2.7,2.7-2.7s2.7,1.2,2.7,2.7c0,1-0.5,1.9-1.3,2.4l-4.4-4.4c-0.3,0.4-0.8,0.6-1.4,0.6c-1.5,0-2.7-1.2-2.7-2.7s1.2-2.7,2.7-2.7s2.7,1.2,2.7,2.7c0,1-0.5,1.9-1.3,2.4l-4.4-4.4c-0.3,0.4-0.8,0.6-1.4,0.6c-1.5,0-2.7-1.2-2.7-2.7s1.2-2.7,2.7-2.7s2.7,1.2,2.7,2.7c0,1-0.5,1.9-1.3,2.4l-4.4-4.4c-0.3,0.4-0.8,0.6-1.4,0.6c-1.5,0-2.7-1.2-2.7-2.7s1.2-2.7,2.7-2.7s2.7,1.2,2.7,2.7c0,1-0.5,1.9-1.3,2.4l-4.4-4.4c-0.3,0.4-0.8,0.6-1.4,0.6c-1.5,0-2.7-1.2-2.7-2.7s1.2-2.7,2.7-2.7s2.7,1.2,2.7,2.7c0,1-0.5,1.9-1.3,2.4l-4.4-4.4c-0.3,0.4-0.8,0.6-1.4,0.6c-1.5,0-2.7-1.2-2.7-2.7s1.2-2.7,2.7-2.7s2.7,1.2,2.7,2.7c0,1-0.5,1.9-1.3,2.4l-4.4-4.4c-0.3,0.4-0.8,0.6-1.4,0.6c-1.5,0-2.7-1.2-2.7-2.7s1.2-2.7,2.7-2.7s2.7,1.2,2.7,2.7c0,1-0.5,1.9-1.3,2.4l-4.4-4.4c-0.3,0.4-0.8,0.6-1.4,0.6c-1.5,0-2.7-1.2-2.7-2.7s1.2-2.7,2.7-2.7s2.7,1.2,2.7,2.7c0,1-0.5,1.9-1.3,2.4l-4.4-4.4c-0.3,0.4-0.8,0.6-1.4,0.6c-1.5,0-2.7-1.2-2.7-2.7s1.2-2.7,2.7-2.7s2.7,1.2,2.7,2.7c0,1-0.5,1.9-1.3,2.4l-4.4-4.4c-0.3,0.4-0.8,0.6-1.4,0.6c-1.5,0-2.7-1.2-2.7-2.7s1.2-2.7,2.7-2.7s2.7,1.2,2.7,2.7c0,1-0.5,1.9-1.3,2.4l-4.4-4.4c-0.3,0.4-0.8,0.6-1.4,0.6c-1.5,0-2.7-1.2-2.7-2.7s1.2-2.7,2.7-2.7s2.7,1.2,2.7,2.7c0,1-0.5,1.9-1.3,2.4l-4.4-4.4c-0.3,0.4-0.8,0.6-1.4,0.6c-1.5,0-2.7-1.2-2.7-2.7s1.2-2.7,2.7-2.7s2.7,1.2,2.7,2.7c0,1-0.5,1.9-1.3,2.4l-4.4-4.4c-0.3,0.4-0.8,0.6-1.4,0.6c-1.5,0-2.7-1.2-2.7-2.7s1.2-2.7,2.7-2.7s2.7,1.2,2.7,2.7c0,1-0.5,1.9-1.3,2.4l-4.4-4.4c-0.3,0.4-0.8,0.6-1.4,0.6c-1.5,0-2.7-1.2-2.7-2.7s1.2-2.7,2.7-2.7s2.7,1.2,2.7,2.7c0,1-0.5,1.9-1.3,2.4l-4.4-4.4c-0.3,0.4-0.8,0.6-1.4,0.6c-1.5,0-2.7-1.2-2.7-2.7s1.2-2.7,2.7-2.7s2.7,1.2,2.7,2.7c0,1-0.5,1.9-1.3,2.4l-4.4-4.4c-0.3,0.4-0.8,0.6-1.4,0.6c-1.5,0-2.7-1.2-2.7-2.7s1.2-2.7,2.7-2.7s2.7,1.2,2.7,2.7c0,1-0.5,1.9-1.3,2.4l-4.4-4.4c-0.3,0.4-0.8,0.6-1.4,0.6c-1.5,0-2.7-1.2-2.7-2.7s1.2-2.7,2.7-2.7s2.7,1.2,2.7,2.7c0,1-0.5,1.9-1.3,2.4l-4.4-4.4c-0.3,0.4-0.8,0.6-1.4,0.6c-1.5,0-2.7-1.2-2.7-2.7s1.2-2.7,2.7-2.7s2.7,1.2,2.7,2.7c0,1-0.5,1.9-1.3,2.4l-4.4-4.4c-0.3,0.4-0.8,0.6-1.4,0.6c-1.5,0-2.7-1.2-2.7-2.7s1.2-2.7,2.7-2.7s2.7,1.2,2.7,2.7c0,1-0.5,1.9-1.3,2.4l-4.4-4.4c-0.3,0.4-0.8,0.6-1.4,0.6c-1.5,0-2.7-1.2-2.7-2.7s1.2-2.7,2.7-2.7s2.7,1.2,2.7,2.7c0,1-0.5,1.9-1.3,2.4l-4.4-4.4c-0.3,0.4-0.8,0.6-1.4,0.6c-1.5,0-2.7-1.2-2.7-2.7s1.2-2.7,2.7-2.7s2.7,1.2,2.7,2.7c0,1-0.5,1.9-1.3,2.4l-4.4-4.4c-0.3,0.4-0.8,0.6-1.4,0.6c-1.5,0-2.7-1.2-2.7-2.7s1.2-2.7,2.7-2.7s2.7,1.2,2.7,2.7c0,1-0.5,1.9-1.3,2.4l-4.4-4.4c-0.3,0.4-0.8,0.6-1.4,0.6c-1.5,0-2.7-1.2-2.7-2.7s1.2-2.7,2.7-2.7s2.7,1.2,2.7,2.7c0,1-0.5,1.9-1.3,2.4l-4.4-4.4c-0.3,0.4-0.8,0.6-1.4,0.6c-1.5,0-2.7-1.2-2.7-2.7s1.2-2.7,2.7-2.7s2.7,1.2,2.7,2.7c0,1-0.5,1.9-1.3,2.4l-4.4-4.4c-0.3,0.4-0.8,0.6-1.4,0.6c-1.5,0-2.7-1.2-2.7-2.7s1.2-2.7,2.7-2.7s2.7,1.2,2.7,2.7c0,1-0.5,1.9-1.3,2.4l-4.4-4.4c-0.3,0.4-0.8,0.6-1.4,0.6c-1.5,0-2.7-1.2-2.7-2.7s1.2-2.7,2.7-2.7s2.7,1.2,2.7,2.7c0,1-0.5,1.9-1.3,2.4l-4.4-4.4c-0.3,0.4-0.8,0.6-1.4,0.6c-1.5,0-2.7-1.2-2.7-2.7s1.2-2.7,2.7-2.7s2.7,1.2,2.7,2.7c0,1-0.5,1.9-1.3,2.4l-4.4-4.4c-0.3,0.4-0.8,0.6-1.4,0.6c-1.5,0-2.7-1.2-2.7-2.7s1.2-2.7,2.7-2.7s2.7,1.2,2.7,2.7c0,1-0.5,1.9-1.3,2.4l-4.4-4.4c-0.3,0.4-0.8,0.6-1.4,0.6c-1.5,0-2.7-1.2-2.7-2.7s1.2-2.7,2.7-2.7s2.7,1.2,2.7,2.7c0,1-0.5,1.9-1.3,2.4l-4.4-4.4c-0.3,0.4-0.8,0.6-1.4,0.6c-1.5,0-2.7-1.2-2.7-2.7s1.2-2.7,2.7-2.7s2.7,1.2,2.7,2.7c0,1-0.5,1.9-1.3,2.4l-4.4-4.4c-0.3,0.4-0.8,0.6-1.4,0.6c-1.5,0-2.7-1.2-2.7-2.7s1.2-2.7,2.7-2.7s2.7,1.2,2.7,2.7c0,1-0.5,1.9-1.3,2.4l-4.4-4.4c-0.3,0.4-0.8,0.6-1.4,0.6c-1.5,0-2.7-1.2-2.7-2.7s1.2-2.7,2.7-2.7s2.7,1.2,2.7,2.7c0,1-0.5,1.9-1.3,2.4l-4.4-4.4c-0.3,0.4-0.8,0.6-1.4,0.6c-1.5,0-2.7-1.2-2.7-2.7s1.2-2.7,2.7-2.7s2.7,1.2,2.7,2.7c0,1-0.5,1.9-1.3,2.4l-4.4-4.4c-0.3,0.4-0.8,0.6-1.4,0.6c-1.5,0-2.7-1.2-2.7-2.7s1.2-2.7,2.7-2.7s2.7,1.2,2.7,2.7c0,1-0.5,1.9-1.3,2.4l-4.4-4.4c-0.3,0.4-0.8,0.6-1.4,0.6c-1.5,0-2.7-1.2-2.7-2.7s1.2-2.7,2.7-2.7s2.7,1.2,2.7,2.7c0,1-0.5,1.9-1.3,2.4l-4.4-4.4c-0.3,0.4-0.8,0.6-1.4,0.6c-1.5,0-2.7-1.2-2.7-2.7s1.2-2.7,2.7-2.7s2.7,1.2,2.7,2.7c0,1-0.5,1.9-1.3,2.4l-4.4-4.4c-0.3,0.4-0.8,0.6-1.4,0.6c-1.5,0-2.7-1.2-2.7-2.7s1.2-2.7,2.7-2.7s2.7,1.2,2.7,2.7c0,1-0.5,1.9-1.3,2.4l-4.4-4.4c-0.3,0.4-0.8,0.6-1.4,0.6c-1.5,0-2.7-1.2-2.7-2.7s1.2-2.7,2.7-2.7s2.7,1.2,2.7,2.7c0,1-0.5,1.9-1.3,2.4l-4.4-4.4c-0.3,0.4-0.8,0.6-1.4,0.6c-1.5,0-2.7-1.2-2.7-2.7s1.2-2.7,2.7-2.7s2.7,1.2,2.7,2.7c0,1-0.5,1.9-1.3,2.4l-4.4-4.4c-0.3,0.4-0.8,0.6-1.4,0.6c-1.5,0-2.7-1.2-2.7-2.7s1.2-2.7,2.7-2.7s2.7,1.2,2.7,2.7c0,1-0.5,1.9-1.3,2.4l-4.4-4.4c-0.3,0.4-0.8,0.6-1.4,0.6c-1.5,0-2.7-1.2-2.7-2.7s1.2-2.7,2.7-2.7s2.7,1.2,2.7,2.7c0,1-0.5,1.9-1.3,2.4l-4.4-4.4c-0.3,0.4-0.8,0.6-1.4,0.6c-1.5,0-2.7-1.2-2.7-2.7s1.2-2.7,2.7-2.7s2.7,1.2,2.7,2.7c0,1-0.5,1.9-1.3,2.4l-4.4-4.4c-0.3,0.4-0.8,0.6-1.4,0.6c-1.5,0-2.7-1.2-2.7-2.7s1.2-2.7,2.7-2.7s2.7,1.2,2.7,2.7c0,1-0.5,1.9-1.3,2.4l-4.4-4.4c-0.3,0.4-0.8,0.6-1.4,0.6c-1.5,0-2.7-1.2-2.7-2.7s1.2-2.7,2.7-2.7s2.7,1.2,2.7,2.7c0,1-0.5,1.9-1.3,2.4l-4.4-4.4c-0.3,0.4-0.8,0.6-1.4,0.6c-1.5,0-2.7-1.2-2.7-2.7s1.2-2.7,2.7-2.7s2.7,1.2,2.7,2.7c0,1-0.5,1.9-1.3,2.4l-4.4-4.4c-0.3,0.4-0.8,0.6-1.4,0.6c-1.5,0-2.7-1.2-2.7-2.7s1.2-2.7,2.7-2.7s2.7,1.2,2.7,2.7c0,1-0.5,1.9-1.3,2.4l-4.4-4.4c-0.3,0.4-0.8,0.6-1.4,0.6c-1.5,0-2.7-1.2-2.7-2.7s1.2-2.7,2.7-2.7s2.7,1.2,2.7,2.7c0,1-0.5,1.9-1.3,2.4l-4.4-4.4c-0.3,0.4-0.8,0.6-1.4,0.6c-1.5,0-2.7-1.2-2.7-2.7s1.2-2.7,2.7-2.7s2.7,1.2,2.7,2.7c0,1-0.5,1.9-1.3,2.4l-4.4-4.4c-0.3,0.4-0.8,0.6-1.4,0.6c-1.5,0-2.7-1.2-2.7-2.7s1.2-2.7,2.7-2.7s2.7,1.2,2.7,2.7c0,1-0.5,1.9-1.3,2.4l-4.4-4.4c-0.3,0.4-0.8,0.6-1.4,0.6c-1.5,0-2.7-1.2-2.7-2.7s1.2-2.7,2.7-2.7s2.7,1.2,2.7,2.7c0,1-0.5,1.9-1.3,2.4l-4.4-4.4c-0.3,0.4-0.8,0.6-1.4,0.6c-1.5,0-2.7-1.2-2.7-2.7s1.2-2.7,2.7-2.7s2.7,1.2,2.7,2.7c0,1-0.5,1.9-1.3,2.4l-4.4-4.4c-0.3,0.4-0.8,0.6-1.4,0.6c-1.5,0-2.7-1.2-2.7-2.7s1.2-2.7,2.7-2.7s2.7,1.2,2.7,2.7c0,1-0.5,1.9-1.3,2.4l-4.4-4.4c-0.3,0.4-0.8,0.6-1.4,0.6c-1.5,0-2.7-1.2-2.7-2.7s1.2-2.7,2.7-2.7s2.7,1.2,2.7,2.7c0,1-0.5,1.9-1.3,2.4l-4.4-4.4c-0.3,0.4-0.8,0.6-1.4,0.6c-1.5,0-2.7-1.2-2.7-2.7s1.2-2.7,2.7-2.7s2.7,1.2,2.7,2.7c0,1-0.5,1.9-1.3,2.4l-4.4-4.4c-0.3,0.4-0.8,0.6-1.4,0.6c-1.5,0-2.7-1.2-2.7-2.7s1.2-2.7,2.7-2.7s2.7,1.2,2.7,2.7c0,1-0.5,1.9-1.3,2.4l-4.4-4.4c-0.3,0.4-0.8,0.6-1.4,0.6c-1.5,0-2.7-1.2-2.7-2.7s1.2-2.7,2.7-2.7s2.7,1.2,2.7,2.7c0,1-0.5,1.9-1.3,2.4l-4.4-4.4c-0.3,0.4-0.8,0.6-1.4,0.6c-1.5,0-2.7-1.2-2.7-2.7s1.2-2.7,2.7-2.7s2.7,1.2,2.7,2.7c0,1-0.5,1.9-1.3,2.4l-4.4-4.4c-0.3,0.4-0.8,0.6-1.4,0.6c-1.5,0-2.7-1.2-2.7-2.7s1.2-2.7,2.7-2.7s2.7,1.2,2.7,2.7c0,1-0.5,1.9-1.3,2.4l-4.4-4.4c-0.3,0.4-0.8,0.6-1.4,0.6c-1.5,0-2.7-1.2-2.7-2.7s1.2-2.7,2.7-2.7s2.7,1.2,2.7,2.7c0,1-0.5,1.9-1.3,2.4l-4.4-4.4c-0.3,0.4-0.8,0.6-1.4,0.6c-1.5,0-2.7-1.2-2.7-2.7s1.2-2.7,2.7-2.7s2.7,1.2,2.7,2.7c0,1-0.5,1.9-1.3,2.4l-4.4-4.4c-0.3,0.4-0.8,0.6-1.4,0.6c-1.5,0-2.7-1.2-2.7-2.7s1.2-2.7,2.7-2.7s2.7,1.2,2.7,2.7c0,1-0.5,1.9-1.3,2.4l-4.4-4.4c-0.3,0.4-0.8,0.6-1.4,0.6c-1.5,0-2.7-1.2-2.7-2.7s1.2-2.7,2.7-2.7s2.7,1.2,2.7,2.7c0,1-0.5,1.9-1.3,2.4l-4.4-4.4c-0.3,0.4-0.8,0.6-1.4,0.6c-1.5,0-2.7-1.2-2.7-2.7s1.2-2.7,2.7-2.7s2.7,1.2,2.7,2.7c0,1-0.5,1.9-1.3,2.4l-4.4-4.4c-0.3,0.4-0.8,0.6-1.4,0.6c-1.5,0-2.7-1.2-2.7-2.7s1.2-2.7,2.7-2.7s2.7,1.2,2.7,2.7c0,1-0.5,1.9-1.3,2.4l-4.4-4.4c-0.3,0.4-0.8,0.6-1.4,0.6c-1.5,0-2.7-1.2-2.7-2.7s1.2-2.7,2.7-2.7s2.7,1.2,2.7,2.7c0,1-0.5,1.9-1.3,2.4l-4.4-4.4c-0.3,0.4-0.8,0.6-1.4,0.6c-1.5,0-2.7-1.2-2.7-2.7s1.2-2.7,2.7-2.7s2.7,1.2,2.7,2.7c0,1-0.5,1.9-1.3,2.4l-4.4-4.4c-0.3,0.4-0.8,0.6-1.4,0.6c-1.5,0-2.7-1.2-2.7-2.7s1.2-2.7,2.7-2.7s2.7,1.2,2.7,2.7c0,1-0.5,1.9-1.3,2.4l-4.4-4.4c-0.3,0.4-0.8,0.6-1.4,0.6c-1.5,0-2.7-1.2-2.7-2.7s1.2-2.7,2.7-2.7s2.7,1.2,2.7,2.7c0,1-0.5,1.9-1.3,2.4l-4.4-4.4c-0.3,0.4-0.8,0.6-1.4,0.6c-1.5,0-2.7-1.2-2.7-2.7s1.2-2.7,2.7-2.7s2.7,1.2,2.7,2.7c0,1-0.5,1.9-1.3,2.4l-4.4-4.4c-0.3,0.4-0.8,0.6-1.4,0.6c-1.5,0-2.7-1.2-2.7-2.7s1.2-2.7,2.7-2.7s2.7,1.2,2.7,2.7c0,1-0.5,1.9-1.3,2.4l-4.4-4.4c-0.3,0.4-0.8,0.6-1.4,0.6c-1.5,0-2.7-1.2-2.7-2.7s1.2-2.7,2.7-2.7s2.7,1.2,2.7,2.7c0,1-0.5,1.9-1.3,2.4l-4.4-4.4c-0.3,0.4-0.8,0.6-1.4,0.6c-1.5,0-2.7-1.2-2.7-2.7s1.2-2.7,2.7-2.7s2.7,1.2,2.7,2.7c0,1-0.5,1.9-1.3,2.4l-4.4-4.4c-0.3,0.4-0.8,0.6-1.4,0.6c-1.5,0-2.7-1.2-2.7-2.7s1.2-2.7,2.7-2.7s2.7,1.2,2.7,2.7c0,1-0.5,1.9-1.3,2.4l-4.4-4.4c-0.3,0.4-0.8,0.6-1.4,0.6c-1.5,0-2.7-1.2-2.7-2.7s1.2-2.7,2.7-2.7s2.7,1.2,2.7,2.7c0,1-0.5,1.9-1.3,2.4l-4.4-4.4c-0.3,0.4-0.8,0.6-1.4,0.6c-1.5,0-2.7-1.2-2.7-2.7s1.2-2.7,2.7-2.7s2.7,1.2,2.7,2.7c0,1-0.5,1.9-1.3,2.4l-4.4-4.4c-0.3,0.4-0.8,0.6-1.4,0.6c-1.5,0-2.7-1.2-2.7-2.7s1.2-2.7,2.7-2.7s2.7,1.2,2.7,2.7c0,1-0.5,1.9-1.3,2.4l-4.4-4.4c-0.3,0.4-0.8,0.6-1.4,0.6c-1.5,0-2.7-1.2-2.7-2.7s1.2-2.7,2.7-2.7s2.7,1.2,2.7,2.7c0,1-0.5,1.9-1.3,2.4l-4.4-4.4c-0.3,0.4-0.8,0.6-1.4,0.6c-1.5,0-2.7-1.2-2.7-2.7s1.2-2.7,2.7-2.7s2.7,1.2,2.7,2.7c0,1-0.5,1.9-1.3,2.4l-4.4-4.4c-0.3,0.4-0.8,0.6-1.4,0.6c-1.5,0-2.7-1.2-2.7-2.7s1.2-2.7,2.7-2.7s2.7,1.2,2.7,2.7c0,1-0.5,1.9-1.3,2.4l-4.4-4.4c-0.3,0.4-0.8,0.6-1.4,0.6c-1.5,0-2.7-1.2-2.7-2.7s1.2-2.7,2.7-2.7s2.7,1.2,2.7,2.7c0,1-0.5,1.9-1.3,2.4l-4.4-4.4c-0.3,0.4-0.8,0.6-1.4,0.6c-1.5,0-2.7-1.2-2.7-2.7s1.2-2.7,2.7-2.7s2.7,1.2,2.7,2.7c0,1-0.5,1.9-1.3,2.4l-4.4-4.4c-0.3,0.4-0.8,0.6-1.4,0.6c-1.5,0-2.7-1.2-2.7-2.7s1.2-2.7,2.7-2.7s2.7,1.2,2.7,2.7c0,1-0.5,1.9-1.3,2.4l-4.4-4.4c-0.3,0.4-0.8,0.6-1.4,0.6c-1.5,0-2.7-1.2-2.7-2.7s1.2-2.7,2.7-2.7s2.7,1.2,2.7,2.7c0,1-0.5,1.9-1.3,2.4l-4.4-4.4c-0.3,0.4-0.8,0.6-1.4,0.6c-1.5,0-2.7-1.2-2.7-2.7s1.2-2.7,2.7-2.7s2.7,1.2,2.7,2.7c0,1-0.5,1.9-1.3,2.4l-4.4-4.4c-0.3,0.4-0.8,0.6-1.4,0.6c-1.5,0-2.7-1.2-2.7-2.7s1.2-2.7,2.7-2.7s2.7,1.2,2.7,2.7c0,1-0.5,1.9-1.3,2.4l-4.4-4.4c-0.3,0.4-0.8,0.6-1.4,0.6c-1.5,0-2.7-1.2-2.7-2.7s1.2-2.7,2.7-2.7s2.7,1.2,2.7,2.7c0,1-0.5,1.9-1.3,2.4l-4.4-4.4c-0.3,0.4-0.8,0.6-1.4,0.6c-1.5,0-2.7-1.2-2.7-2.7s1.2-2.7,2.7-2.7s2.7,1.2,2.7,2.7c0,1-0.5,1.9-1.3,2.4l-4.4-4.4c-0.3,0.4-0.8,0.6-1.4,0.6c-1.5,0-2.7-1.2-2.7-2.7s1.2-2.7,2.7-2.7s2.7,1.2,2.7,2.7c0,1-0.5,1.9-1.3,2.4l-4.4-4.4c-0.3,0.4-0.8,0.6-1.4,0.6c-1.5,0-2.7-1.2-2.7-2.7s1.2-2.7,2.7-2.7s2.7,1.2,2.7,2.7c0,1-0.5,1.9-1.3,2.4l-4.4-4.4c-0.3,0.4-0.8,0.6-1.4,0.6c-1.5,0-2.7-1.2-2.7-2.7s1.2-2.7,2.7-2.7s2.7,1.2,2.7,2.7c0,1-0.5,1.9-1.3,2.4l-4.4-4.4c-0.3,0.4-0.8,0.6-1.4,0.6c-1.5,0-2.7-1.2-2.7-2.7s1.2-2.7,2.7-2.7s2.7,1.2,2.7,2.7c0,1-0.5,1.9-1.3,2.4l-4.4-4.4c-0.3,0.4-0.8,0.6-1.4,0.6c-1.5,0-2.7-1.2-2.7-2.7s1.2-2.7,2.7-2.7s2.7,1.2,2.7,2.7c0,1-0.5,1.9-1.3,2.4l-4.4-4.4c-0.3,0.4-0.8,0.6-1.4,0.6c-1.5,0-2.7-1.2-2.7-2.7s1.2-2.7,2.7-2.7s2.7,1.2,2.7,2.7c0,1-0.5,1.9-1.3,2.4l-4.4-4.4c-0.3,0.4-0.8,0.6-1.4,0.6c-1.5,0-2.7-1.2-2.7-2.7s1.2-2.7,2.7-2.7s2.7,1.2,2.7,2.7c0,1-0.5,1.9-1.3,2.4l-4.4-4.4c-0.3,0.4-0.8,0.6-1.4,0.6c-1.5,0-2.7-1.2-2.7-2.7s1.2-2.7,2.7-2.7s2.7,1.2,2.7,2.7c0,1-0.5,1.9-1.3,2.4l-4.4-4.4c-0.3,0.4-0.8,0.6-1.4,0.6c-1.5,0-2.7-1.2-2.7-2.7s1.2-2.7,2.7-2.7s2.7,1.2,2.7,2.7c0,1-0.5,1.9-1.3,2.4l-4.4-4.4c-0.3,0.4-0.8,0.6-1.4,0.6c-1.5,0-2.7-1.2-2.7-2.7s1.2-2.7,2.7-2.7s2.7,1.2,2.7,2.7c0,1-0.5,1.9-1.3,2.4l-4.4-4.4c-0.3,0.4-0.8,0.6-1.4,0.6c-1.5,0-2.7-1.2-2.7-2.7s1.2-2.7,2.7-2.7s2.7,1.2,2.7,2.7c0,1-0.5,1.9-1.3,2.4l-4.4-4.4c-0.3,0.4-0.8,0.6-1.4,0.6c-1.5,0-2.7-1.2-2.7-2.7s1.2-2.7,2.7-2.7s2.7,1.2,2.7,2.7c0,1-0.5,1.9-1.3,2.4l-4.4-4.4c-0.3,0.4-0.8,0.6-1.4,0.6c-1.5,0-2.7-1.2-2.7-2.7s1.2-2.7,2.7-2.7s2.7,1.2,2.7,2.7c0,1-0.5,1.9-1.3,2.4l-4.4-4.4c-0.3,0.4-0.8,0.6-1.4,0.6c-1.5,0-2.7-1.2-2.7-2.7s1.2-2.7,2.7-2.7s2.7,1.2,2.7,2.7c0,1-0.5,1.9-1.3,2.4l-4.4-4.4c-0.3,0.4-0.8,0.6-1.4,0.6c-1.5,0-2.7-1.2-2.7-2.7s1.2-2.7,2.7-2.7s2.7,1.2,2.7,2.7c0,1-0.5,1.9-1.3,2.4l-4.4-4.4c-0.3,0.4-0.8,0.6-1.4,0.6c-1.5,0-2.7-1.2-2.7-2.7s1.2-2.7,2.7-2.7s2.7,1.2,2.7,2.7c0,1-0.5,1.9-1.3,2.4l-4.4-4.4c-0.3,0.4-0.8,0.6-1.4,0.6c-1.5,0-2.7-1.2-2.7-2.7s1.2-2.7,2.7-2.7s2.7,1.2,2.7,2.7c0,1-0.5,1.9-1.3,2.4l-4.4-4.4c-0.3,0.4-0.8,0.6-1.4,0.6c-1.5,0-2.7-1.2-2.7-2.7s1.2-2.7,2.7-2.7s2.7,1.2,2.7,2.7c0,1-0.5,1.9-1.3,2.4l-4.4-4.4c-0.3,0.4-0.8,0.6-1.4,0.6c-1.5,0-2.7-1.2-2.7-2.7s1.2-2.7,2.7-2.7s2.7,1.2,2.7,2.7c0,1-0.5,1.9-1.3,2.4l-4.4-4.4c-0.3,0.4-0.8,0.6-1.4,0.6c-1.5,0-2.7-1.2-2.7-2.7s1.2-2.7,2.7-2.7s2.7,1.2,2.7,2.7c0,1-0.5,1.9-1.3,2.4l-4.4-4.4c-0.3,0.4-0.8,0.6-1.4,0.6c-1.5,0-2.7-1.2-2.7-2.7s1.2-2.7,2.7-2.7s2.7,1.2,2.7,2.7c0,1-0.5,1.9-1.3,2.4l-4.4-4.4c-0.3,0.4-0.8,0.6-1.4,0.6c-1.5,0-2.7-1.2-2.7-2.7s1.2-2.7,2.7-2.7s2.7,1.2,2.7,2.7c0,1-0.5,1.9-1.3,2.4l-4.4-4.4c-0.3,0.4-0.8,0.6-1.4,0.6c-1.5,0-2.7-1.2-2.7-2.7s1.2-2.7,2.7-2.7s2.7,1.2,2.7,2.7c0,1-0.5,1.9-1.3,2.4l-4.4-4.4c-0.3,0.4-0.8,0.6-1.4,0.6c-1.5,0-2.7-1.2-2.7-2.7s1.2-2.7,2.7-2.7s2.7,1.2,2.7,2.7c0,1-0.5,1.9-1.3,2.4l-4.4-4.4c-0.3,0.4-0.8,0.6-1.4,0.6c-1.5,0-2.7-1.2-2.7-2.7s1.2-2.7,2.7-2.7s2.7,1.2,2.7,2.7c0,1-0.5,1.9-1.3,2.4l-4.4-4.4c-0.3,0.4-0.8,0.6-1.4,0.6c-1.5,0-2.7-1.2-2.7-2.7s1.2-2.7,2.7-2.7s2.7,1.2,2.7,2.7c0,1-0.5,1.9-1.3,2.4l-4.4-4.4c-0.3,0.4-0.8,0.6-1.4,0.6c-1.5,0-2.7-1.2-2.7-2.7s1.2-2.7,2.7-2.7s2.7,1.2,2.7,2.7c0,1-0.5,1.9-1.3,2.4l-4.4-4.4c-0.3,0.4-0.8,0.6-1.4,0.6c-1.5,0-2.7-1.2-2.7-2.7s1.2-2.7,2.7-2.7s2.7,1.2,2.7,2.7c0,1-0.5,1.9-1.3,2.4l-4.4-4.4c-0.3,0.4-0.8,0.6-1.4,0.6c-1.5,0-2.7-1.2-2.7-2.7s1.2-2.7,2.7-2.7s2.7,1.2,2.7,2.7c0,1-0.5,1.9-1.3,2.4l-4.4-4.4c-0.3,0.4-0.8,0.6-1.4,0.6c-1.5,0-2.7-1.2-2.7-2.7s1.2-2.7,2.7-2.7s2.7,1.2,2.7,2.7c0,1-0.5,1.9-1.3,2.4l-4.4-4.4c-0.3,0.4-0.8,0.6-1.4,0.6c-1.5,0-2.7-1.2-2.7-2.7s1.2-2.7,2.7-2.7s2.7,1.2,2.7,2.7c0,1-0.5,1.9-1.3,2.4l-4.4-4.4c-0.3,0.4-0.8,0.6-1.4,0.6c-1.5,0-2.7-1.2-2.7-2.7s1.2-2.7,2.7-2.7s2.7,1.2,2.7,2.7c0,1-0.5,1.9-1.3,2.4l-4.4-4.4c-0.3,0.4-0.8,0.6-1.4,0.6c-1.5,0-2.7-1.2-2.7-2.7s1.2-2.7,2.7-2.7s2.7,1.2,2.7,2.7c0,1-0.5,1.9-1.3,2.4l-4.4-4.4c-0.3,0.4-0.8,0.6-1.4,0.6c-1.5,0-2.7-1.2-2.7-2.7s1.2-2.7,2.7-2.7s2.7,1.2,2.7,2.7c0,1-0.5,1.9-1.3,2.4l-4.4-4.4c-0.3,0.4-0.8,0.6-1.4,0.6c-1.5,0-2.7-1.2-2.7-2.7s1.2-2.7,2.7-2.7s2.7,1.2,2.7,2.7c0,1-0.5,1.9-1.3,2.4l-4.4-4.4c-0.3,0.4-0.8,0.6-1.4,0.6c-1.5,0-2.7-1.2-2.7-2.7s1.2-2.7,2.7-2.7s2.7,1.2,2.7,2.7c0,1-0.5,1.9-1.3,2.4l-4.4-4.4c-0.3,0.4-0.8,0.6-1.4,0.6c-1.5,0-2.7-1.2-2.7-2.7s1.2-2.7,2.7-2.7s2.7,1.2,2.7,2.7c0,1-0.5,1.9-1.3,2.4l-4.4-4.4c-0.3,0.4-0.8,0.6-1.4,0.6c-1.5,0-2.7-1.2-2.7-2.7s1.2-2.7,2.7-2.7s2.7,1.2,2.7,2.7c0,1-0.5,1.9-1.3,2.4l-4.4-4.4c-0.3,0.4-0.8,0.6-1.4,0.6c-1.5,0-2.7-1.2-2.7-2.7s1.2-2.7,2.7-2.7s2.7,1.2,2.7,2.7c0,1-0.5,1.9-1.3,2.4l-4.4-4.4c-0.3,0.4-0.8,0.6-1.4,0.6c-1.5,0-2.7-1.2-2.7-2.7s1.2-2.7,2.7-2.7s2.7,1.2,2.7,2.7c0,1-0.5,1.9-1.3,2.4l-4.4-4.4c-0.3,0.4-0.8,0.6-1.4,0.6c-1.5,0-2.7-1.2-2.7-2.7s1.2-2.7,2.7-2.7s2.7,1.2,2.7,2.7c0,1-0.5,1.9-1.3,2.4l-4.4-4.4c-0.3,0.4-0.8,0.6-1.4,0.6c-1.5,0-2.7-1.2-2.7-2.7s1.2-2.7,2.7-2.7s2.7,1.2,2.7,2.7c0,1-0.5,1.9-1.3,2.4l-4.4-4.4c-0.3,0.4-0.8,0.6-1.4,0.6c-1.5,0-2.7-1.2-2.7-2.7s1.2-2.7,2.7-2.7s2.7,1.2,2.7,2.7c0,1-0.5,1.9-1.3,2.4l-4.4-4.4c-0.3,0.4-0.8,0.6-1.4,0.6c-1.5,0-2.7-1.2-2.7-2.7s1.2-2.7,2.7-2.7s2.7,1.2,2.7,2.7c0,1-0.5,1.9-1.3,2.4l-4.4-4.4c-0.3,0.4-0.8,0.6-1.4,0.6c-1.5,0-2.7-1.2-2.7-2.7s1.2-2.7,2.7-2.7s2.7,1.2,2.7,2.7c0,1-0.5,1.9-1.3,2.4l-4.4-4.4c-0.3,0.4-0.8,0.6-1.4,0.6c-1.5,0-2.7-1.2-2.7-2.7s1.2-2.7,2.7-2.7s2.7,1.2,2.7,2.7c0,1-0.5,1.9-1.3,2.4l-4.4-4.4c-0.3,0.4-0.8,0.6-1.4,0.6c-1.5,0-2.7-1.2-2.7-2.7s1.2-2.7,2.7-2.7s2.7,1.2,2.7,2.7c0,1-0.5,1.9-1.3,2.4l-4.4-4.4c-0.3,0.4-0.8,0.6-1.4,0.6c-1.5,0-2.7-1.2-2.7-2.7s1.2-2.7,2.7-2.7s2.7,1.2,2.7,2.7c0,1-0.5,1.9-1.3,2.4l-4.4-4.4c-0.3,0.4-0.8,0.6-1.4,0.6c-1.5,0-2.7-1.2-2.7-2.7s1.2-2.7,2.7-2.7s2.7,1.2,2.7,2.7c0,1-0.5,1.9-1.3,2.4l-4.4-4.4c-0.3,0.4-0.8,0.6-1.4,0.6c-1.5,0-2.7-1.2-2.7-2.7s1.2-2.7,2.7-2.7s2.7,1.2,2.7,2.7c0,1-0.5,1.9-1.3,2.4l-4.4-4.4c-0.3,0.4-0.8,0.6-1.4,0.6c-1.5,0-2.7-1.2-2.7-2.7s1.2-2.7,2.7-2.7s2.7,1.2,2.7,2.7c0,1-0.5,1.9-1.3,2.4l-4.4-4.4c-0.3,0.4-0.8,0.6-1.4,0.6c-1.5,0-2.7-1.2-2.7-2.7s1.2-2.7,2.7-2.7s2.7,1.2,2.7,2.7c0,1-0.5,1.9-1.3,2.4l-4.4-4.4c-0.3,0.4-0.8,0.6-1.4,0.6c-1.5,0-2.7-1.2-2.7-2.7s1.2-2.7,2.7-2.7s2.7,1.2,2.7,2.7c0,1-0.5,1.9-1.3,2.4l-4.4-4.4c-0.3,0.4-0.8,0.6-1.4,0.6c-1.5,0-2.7-1.2-2.7-2.7s1.2-2.7,2.7-2.7s2.7,1.2,2.7,2.7c0,1-0.5,1.9-1.3,2.4l-4.4-4.4c-0.3,0.4-0.8,0.6-1.4,0.6c-1.5,0-2.7-1.2-2.7-2.7s1.2-2.7,2.7-2.7s2.7,1.2,2.7,2.7c0,1-0.5,1.9-1.3,2.4l-4.4-4.4c-0.3,0.4-0.8,0.6-1.4,0.6c-1.5,0-2.7-1.2-2.7-2.7s1.2-2.7,2.7-2.7s2.7,1.2,2.7,2.7c0,1-0.5,1.9-1.3,2.4l-4.4-4.4c-0.3,0.4-0.8,0.6-1.4,0.6c-1.5,0-2.7-1.2-2.7-2.7s1.2-2.7,2.7-2.7s2.7,1.2,2.7,2.7c0,1-0.5,1.9-1.3,2.4l-4.4-4.4c-0.3,0.4-0.8,0.6-1.4,0.6c-1.5,0-2.7-1.2-2.7-2.7s1.2-2.7,2.7-2.7s2.7,1.2,2.7,2.7c0,1-0.5,1.9-1.3,2.4l-4.4-4.4c-0.3,0.4-0.8,0.6-1.4,0.6c-1.5,0-2.7-1.2-2.7-2.7s1.2-2.7,2.7-2.7s2.7,1.2,2.7,2.7c0,1-0.5,1.9-1.3,2.4l-4.4-4.4c-0.3,0.4-0.8,0.6-1.4,0.6c-1.5,0-2.7-1.2-2.7-2.7s1.2-2.7,2.7-2.7s2.7,1.2,2.7,2.7c0,1-0.5,1.9-1.3,2.4l-4.4-4.4c-0.3,0.4-0.8,0.6-1.4,0.6c-1.5,0-2.7-1.2-2.7-2.7s1.2-2.7,2.7-2.7s2.7,1.2,2.7,2.7c0,1-0.5,1.9-1.3,2.4l-4.4-4.4c-0.3,0.4-0.8,0.6-1.4,0.6c-1.5,0-2.7-1.2-2.7-2.7s1.2-2.7,2.7-2.7s2.7,1.2,2.7,2.7c0,1-0.5,1.9-1.3,2.4l-4.4-4.4c-0.3,0.4-0.8,0.6-1.4,0.6c-1.5,0-2.7-1.2-2.7-2.7s1.2-2.7,2.7-2.7s2.7,1.2,2.7,2.7c0,1-0.5,1.9-1.3,2.4l-4.4-4.4c-0.3,0.4-0.8,0.6-1.4,0.6c-1.5,0-2.7-1.2-2.7-2.7s1.2-2.7,2.7-2.7s2.7,1.2,2.7,2.7c0,1-0.5,1.9-1.3,2.4l-4.4-4.4c-0.3,0.4-0.8,0.6-1.4,0.6c-1.5,0-2.7-1.2-2.7-2.7s1.2-2.7,2.7-2.7s2.7,1.2,2.7,2.7c0,1-0.5,1.9-1.3,2.4l-4.4-4.4c-0.3,0.4-0.8,0.6-1.4,0.6c-1.5,0-2.7-1.2-2.7-2.7s1.2-2.7,2.7-2.7s2.7,1.2,2.7,2.7c0,1-0.5,1.9-1.3,2.4l-4.4-4.4c-0.3,0.4-0.8,0.6-1.4,0.6c-1.5,0-2.7-1.2-2.7-2.7s1.2-2.7,2.7-2.7s2.7,1.2,2.7,2.7c0,1-0.5,1.9-1.3,2.4l-4.4-4.4c-0.3,0.4-0.8,0.6-1.4,0.6c-1.5,0-2.7-1.2-2.7-2.7s1.2-2.7,2.7-2.7s2.7,1.2,2.7,2.7c0,1-0.5,1.9-1.3,2.4l-4.4-4.4c-0.3,0.4-0.8,0.6-1.4,0.6c-1.5,0-2.7-1.2-2.7-2.7s1.2-2.7,2.7-2.7s2.7,1.2,2.7,2.7c0,1-0.5,1.9-1.3,2.4l-4.4-4.4c-0.3,0.4-0.8,0.6-1.4,0.6c-1.5,0-2.7-1.2-2.7-2.7s1.2-2.7,2.7-2.7s2.7,1.2,2.7,2.7c0,1-0.5,1.9-1.3,2.4l-4.4-4.4c-0.3,0.4-0.8,0.6-1.4,0.6c-1.5,0-2.7-1.2-2.7-2.7s1.2-2.7,2.7-2.7s2.7,1.2,2.7,2.7c0,1-0.5,1.9-1.3,2.4l-4.4-4.4c-0.3,0.4-0.8,0.6-1.4,0.6c-1.5,0-2.7-1.2-2.7-2.7s1.2-2.7,2.7-2.7s2.7,1.2,2.7,2.7c0,1-0.5,1.9-1.3,2.4l-4.4-4.4c-0.3,0.4-0.8,0.6-1.4,0.6c-1.5,0-2.7-1.2-2.7-2.7s1.2-2.7,2.7-2.7s2.7,1.2,2.7,2.7c0,1-0.5,1.9-1.3,2.4l-4.4-4.4c-0.3,0.4-0.8,0.6-1.4,0.6c-1.5,0-2.7-1.2-2.7-2.7s1.2-2.7,2.7-2.7s2.7,1.2,2.7,2.7c0,1-0.5,1.9-1.3,2.4l-4.4-4.4c-0.3,0.4-0.8,0.6-1.4,0.6c-1.5,0-2.7-1.2-2.7-2.7s1.2-2.7,2.7-2.7s2.7,1.2,2.7,2.7c0,1-0.5,1.9-1.3,2.4l-4.4-4.4c-0.3,0.4-0.8,0.6-1.4,0.6c-1.5,0-2.7-1.2-2.7-2.7s1.2-2.7,2.7-2.7s2.7,1.2,2.7,2.7c0,1-0.5,1.9-1.3,2.4l-4.4-4.4c-0.3,0.4-0.8,0.6-1.4,0.6c-1.5,0-2.7-1.2-2.7-2.7s1.2-2.7,2.7-2.7s2.7,1.2,2.7,2.7c0,1-0.5,1.9-1.3,2.4l-4.4-4.4c-0.3,0.4-0.8,0.6-1.4,0.6c-1.5,0-2.7-1.2-2.7-2.7s1.2-2.7,2.7-2.7s2.7,1.2,2.7,2.7c0,1-0.5,1.9-1.3,2.4l-4.4-4.4c-0.3,0.4-0.8,0.6-1.4,0.6c-1.5,0-2.7-1.2-2.7-2.7s1.2-2.7,2.7-2.7s2.7,1.2,2.7,2.7c0,1-0.5,1.9-1.3,2.4l-4.4-4.4c-0.3,0.4-0.8,0.6-1.4,0.6c-1.5,0-2.7-1.2-2.7-2.7s1.2-2.7,2.7-2.7s2.7,1.2,2.7,2.7c0,1-0.5,1.9-1.3,2.4l-4.4-4.4c-0.3,0.4-0.8,0.6-1.4,0.6c-1.5,0-2.7-1.2-2.7-2.7s1.2-2.7,2.7-2.7s2.7,1.2,2.7,2.7c0,1-0.5,1.9-1.3,2.4l-4.4-4.4c-0.3,0.4-0.8,0.6-1.4,0.6c-1.5,0-2.7-1.2-2.7-2.7s1.2-2.7,2.7-2.7s2.7,1.2,2.7,2.7c0,1-0.5,1.9-1.3,2.4l-4.4-4.4c-0.3,0.4-0.8,0.6-1.4,0.6c-1.5,0-2.7-1.2-2.7-2.7s1.2-2.7,2.7-2.7s2.7,1.2,2.7,2.7c0,1-0.5,1.9-1.3,2.4l-4.4-4.4c-0.3,0.4-0.8,0.6-1.4,0.6c-1.5,0-2.7-1.2-2.7-2.7s1.2-2.7,2.7-2.7s2.7,1.2,2.7,2.7c0,1-0.5,1.9-1.3,2.4l-4.4-4.4c-0.3,0.4-0.8,0.6-1.4,0.6c-1.5,0-2.7-1.2-2.7-2.7s1.2-2.7,2.7-2.7s2.7,1.2,2.7,2.7c0,1-0.5,1.9-1.3,2.4l-4.4-4.4c-0.3,0.4-0.8,0.6-1.4,0.6c-1.5,0-2.7-1.2-2.7-2.7s1.2-2.7,2.7-2.7s2.7,1.2,2.7,2.7c0,1-0.5,1.9-1.3,2.4l-4.4-4.4c-0.3,0.4-0.8,0.6-1.4,0.6c-1.5,0-2.7-1.2-2.7-2.7s1.2-2.7,2.7-2.7s2.7,1.2,2.7,2.7c0,1-0.5,1.9-1.3,2.4l-4.4-4.4c-0.3,0.4-0.8,0.6-1.4,0.6c-1.5,0-2.7-1.2-2.7-2.7s1.2-2.7,2.7-2.7s2.7,1.2,2.7,2.7c0,1-0.5,1.9-1.3,2.4l-4.4-4.4c-0.3,0.4-0.8,0.6-1.4,0.6c-1.5,0-2.7-1.2-2.7-2.7s1.2-2.7,2.7-2.7s2.7,1.2,2.7,2.7c0,1-0.5,1.9-1.3,2.4l-4.4-4.4c-0.3,0.4-0.8,0.6-1.4,0.6c-1.5,0-2.7-1.2-2.7-2.7s1.2-2.7,2.7-2.7s2.7,1.2,2.7,2.7c0,1-0.5,1.9-1.3,2.4l-4.4-4.4c-0.3,0.4-0.8,0.6-1.4,0.6c-1.5,0-2.7-1.2-2.7-2.7s1.2-2.7,2.7-2.7s2.7,1.2,2.7,2.7c0,1-0.5,1.9-1.3,2.4l-4.4-4.4c-0.3,0.4-0.8,0.6-1.4,0.6c-1.5,0-2.7-1.2-2.7-2.7s1.2-2.7,2.7-2.7s2.7,1.2,2.7,2.7c0,1-0.5,1.9-1.3,2.4l-4.4-4.4c-0.3,0.4-0.8,0.6-1.4,0.6c-1.5,0-2.7-1.2-2.7-2.7s1.2-2.7,2.7-2.7s2.7,1.2,2.7,2.7c0,1-0.5,1.9-1.3,2.4l-4.4-4.4c-0.3,0.4-0.8,0.6-1.4,0.6c-1.5,0-2.7-1.2-2.7-2.7s1.2-2.7,2.7-2.7s2.7,1.2,2.7,2.7c0,1-0.5,1.9-1.3,2.4l-4.4-4.4c-0.3,0.4-0.8,0.6-1.4,0.6c-1.5,0-2.7-1.2-2.7-2.7s1.2-2.7,2.7-2.7s2.7,1.2,2.7,2.7c0,1-0.5,1.9-1.3,2.4l-4.4-4.4c-0.3,0.4-0.8,0.6-1.4,0.6c-1.5,0-2.7-1.2-2.7-2.7s1.2-2.7,2.7-2.7s2.7,1.2,2.7,2.7c0,1-0.5,1.9-1.3,2.4l-4.4-4.4c-0.3,0.4-0.8,0.6-1.4,0.6c-1.5,0-2.7-1.2-2.7-2.7s1.2-2.7,2.7-2.7s2.7,1.2,2.7,2.7c0,1-0.5,1.9-1.3,2.4l-4.4-4.4c-0.3,0.4-0.8,0.6-1.4,0.6c-1.5,0-2.7-1.2-2.7-2.7s1.2-2.7,2.7-2.7s2.7,1.2,2.7,2.7c0,1-0.5,1.9-1.3,2.4l-4.4-4.4c-0.3,0.4-0.8,0.6-1.4,0.6c-1.5,0-2.7-1.2-2.7-2.7s1.2-2.7,2.7-2.7s2.7,1.2,2.7,2.7c0,1-0.5,1.9-1.3,2.4l-4.4-4.4c-0.3,0.4-0.8,0.6-1.4,0.6c-1.5,0-2.7-1.2-2.7-2.7s1.2-2.7,2.7-2.7s2.7,1.2,2.7,2.7c0,1-0.5,1.9-1.3,2.4l-4.4-4.4c-0.3,0.4-0.8,0.6-1.4,0.6c-1.5,0-2.7-1.2-2.7-2.7s1.2-2.7,2.7-2.7s2.7,1.2,2.7,2.7c0,1-0.5,1.9-1.3,2.4l-4.4-4.4c-0.3,0.4-0.8,0.6-1.4,0.6c-1.5,0-2.7-1.2-2.7-2.7s1.2-2.7,2.7-2.7s2.7,1.2,2.7,2.7c0,1-0.5,1.9-1.3,2.4l-4.4-4.4c-0.3,0.4-0.8,0.6-1.4,0.6c-1.5,0-2.7-1.2-2.7-2.7s1.2-2.7,2.7-2.7s2.7,1.2,2.7,2.7c0,1-0.5,1.9-1.3,2.4l-4.4-4.4c-0.3,0.4-0.8,0.6-1.4,0.6c-1.5,0-2.7-1.2-2.7-2.7s1.2-2.7,2.7-2.7s2.7,1.2,2.7,2.7c0,1-0.5,1.9-1.3,2.4l-4.4-4.4c-0.3,0.4-0.8,0.6-1.4,0.6c-1.5,0-2.7-1.2-2.7-2.7s1.2-2.7,2.7-2.7s2.7,1.2,2.7,2.7c0,1-0.5,1.9-1.3,2.4l-4.4-4.4c-0.3,0.4-0.8,0.6-1.4,0.6c-1.5,0-2.7-1.2-2.7-2.7s1.2-2.7,2.7-2.7s2.7,1.2,2.7,2.7c0,1-0.5,1.9-1.3,2.4l-4.4-4.4c-0.3,0.4-0.8,0.6-1.4,0.6c-1.5,0-2.7-1.2-2.7-2.7s1.2-2.7,2.7-2.7s2.7,1.2,2.7,2.7c0,1-0.5,1.9-1.3,2.4l-4.4-4.4c-0.3,0.4-0.8,0.6-1.4,0.6c-1.5,0-2.7-1.2-2.7-2.7s1.2-2.7,2.7-2.7s2.7,1.2,2.7,2.7c0,1-0.5,1.9-1.3,2.4l-4.4-4.4c-0.3,0.4-0.8,0.6-1.4,0.6c-1.5,0-2.7-1.2-2.7-2.7s1.2-2.7,2.7-2.7s2.7,1.2,2.7,2.7c0,1-0.5,1.9-1.3,2.4l-4.4-4.4c-0.3,0.4-0.8,0.6-1.4,0.6c-1.5,0-2.7-1.2-2.7-2.7s1.2-2.7,2.7-2.7s2.7,1.2,2.7,2.7c0,1-0.5,1.9-1.3,2.4l-4.4-4.4c-0.3,0.4-0.8,0.6-1.4,0.6c-1.5,0-2.7-1.2-2.7-2.7s1.2-2.7,2.7-2.7s2.7,1.2,2.7,2.7c0,1-0.5,1.9-1.3,2.4l-4.4-4.4c-0.3,0.4-0.8,0.6-1.4,0.6c-1.5,0-2.7-1.2-2.7-2.7s1.2-2.7,2.7-2.7s2.7,1.2,2.7,2.7c0,1-0.5,1.9-1.3,2.4l-4.4-4.4c-0.3,0.4-0.8,0.6-1.4,0.6c-1.5,0-2.7-1.2-2.7-2.7s1.2-2.7,2.7-2.7s2.7,1.2,2.7,2.7c0,1-0.5,1.9-1.3,2.4l-4.4-4.4c-0.3,0.4-0.8,0.6-1.4,0.6c-1.5,0-2.7-1.2-2.7-2.7s1.2-2.7,2.7-2.7s2.7,1.2,2.7,2.7c0,1-0.5,1.9-1.3,2.4l-4.4-4.4c-0.3,0.4-0.8,0.6-1.4,0.6c-1.5,0-2.7-1.2-2.7-2.7s1.2-2.7,2.7-2.7s2.7,1.2,2.7,2.7c0,1-0.5,1.9-1.3,2.4l-4.4-4.4c-0.3,0.4-0.8,0.6-1.4,0.6c-1.5,0-2.7-1.2-2.7-2.7s1.2-2.7,2.7-2.7s2.7,1.2,2.7,2.7c0,1-0.5,1.9-1.3,2.4l-4.4-4.4c-0.3,0.4-0.8,0.6-1.4,0.6c-1.5,0-2.7-1.2-2.7-2.7s1.2-2.7,2.7-2.7s2.7,1.2,2.7,2.7c0,1-0.5,1.9-1.3,2.4l-4.4-4.4c-0.3,0.4-0.8,0.6-1.4,0.6c-1.5,0-2.7-1.2-2.7-2.7s1.2-2.7,2.7-2.7s2.7,1.2,2.7,2.7c0,1-0.5,1.9-1.3,2.4l-4.4-4.4c-0.3,0.4-0.8,0.6-1.4,0.6c-1.5,0-2.7-1.2-2.7-2.7s1.2-2.7,2.7-2.7s2.7,1.2,2.7,2.7c0,1-0.5,1.9-1.3,2.4l-4.4-4.4c-0.3,0.4-0.8,0.6-1.4,0.6c-1.5,0-2.7-1.2-2.7-2.7s1.2-2.7,2.7-2.7s2.7,1.2,2.7,2.7c0,1-0.5,1.9-1.3,2.4l-4.4-4.4c-0.3,0.4-0.8,0.6-1.4,0.6c-1.5,0-2.7-1.2-2.7-2.7s1.2-2.7,2.7-2.7s2.7,1.2,2.7,2.7c0,1-0.5,1.9-1.3,2.4l-4.4-4.4c-0.3,0.4-0.8,0.6-1.4,0.6c-1.5,0-2.7-1.2-2.7-2.7s1.2-2.7,2.7-2.7s2.7,1.2,2.7,2.7c0,1-0.5,1.9-1.3,2.4l-4.4-4.4c-0.3,0.4-0.8,0.6-1.4,0.6c-1.5,0-2.7-1.2-2.7-2.7s1.2-2.7,2.7-2.7s2.7,1.2,2.7,2.7c0,1-0.5,1.9-1.3,2.4l-4.4-4.4c-0.3,0.4-0.8,0.6-1.4,0.6c-1.5,0-2.7-1.2-2.7-2.7s1.2-2.7,2.7-2.7s2.7,1.2,2.7,2.7c0,1-0.5,1.9-1.3,2.4l-4.4-4.4c-0.3,0.4-0.8,0.6-1.4,0.6c-1.5,0-2.7-1.2-2.7-2.7s1.2-2.7,2.7-2.7s2.7,1.2,2.7,2.7c0,1-0.5,1.9-1.3,2.4l-4.4-4.4c-0.3,0.4-0.8,0.6-1.4,0.6c-1.5,0-2.7-1.2-2.7-2.7s1.2-2.7,2.7-2.7s2.7,1.2,2.7,2.7c0,1-0.5,1.9-1.3,2.4l-4.4-4.4c-0.3,0.4-0.8,0.6-1.4,0.6c-1.5,0-2.7-1.2-2.7-2.7s1.2-2.7,2.7-2.7s2.7,1.2,2.7,2.7c0,1-0.5,1.9-1.3,2.4l-4.4-4.4c-0.3,0.4-0.8,0.6-1.4,0.6c-1.5,0-2.7-1.2-2.7-2.7s1.2-2.7,2.7-2.7s2.7,1.2,2.7,2.7c0,1-0.5,1.9-1.3,2.4l-4.4-4.4c-0.3,0.4-0.8,0.6-1.4,0.6c-1.5,0-2.7-1.2-2.7-2.7s1.2-2.7,2.7-2.7s2.7,1.2,2.7,2.7c0,1-0.5,1.9-1.3,2.4l-4.4-4.4c-0.3,0.4-0.8,0.6-1.4,0.6c-1.5,0-2.7-1.2-2.7-2.7s1.2-2.7,2.7-2.7s2.7,1.2,2.7,2.7c0,1-0.5,1.9-1.3,2.4l-4.4-4.4c-0.3,0.4-0.8,0.6-1.4,0.6c-1.5,0-2.7-1.2-2.7-2.7s1.2-2.7,2.7-2.7s2.7,1.2,2.7,2.7c0,1-0.5,1.9-1.3,2.4l-4.4-4.4c-0.3,0.4-0.8,0.6-1.4,0.6c-1.5,0-2.7-1.2-2.7-2.7s1.2-2.7,2.7-2.7s2.7,1.2,2.7,2.7c0,1-0.5,1.9-1.3,2.4l-4.4-4.4c-0.3,0.4-0.8,0.6-1.4,0.6c-1.5,0-2.7-1.2-2.7-2.7s1.2-2.7,2.7-2.7s2.7,1.2,2.7,2.7c0,1-0.5,1.9-1.3,2.4l-4.4-4.4c-0.3,0.4-0.8,0.6-1.4,0.6c-1.5,0-2.7-1.2-2.7-2.7s1.2-2.7,2.7-2.7s2.7,1.2,2.7,2.7c0,1-0.5,1.9-1.3,2.4l-4.4-4.4c-0.3,0.4-0.8,0.6-1.4,0.6c-1.5,0-2.7-1.2-2.7-2.7s1.2-2.7,2.7-2.7s2.7,1.2,2.7,2.7c0,1-0.5,1.9-1.3,2.4l-4.4-4.4c-0.3,0.4-0.8,0.6-1.4,0.6c-1.5,0-2.7-1.2-2.7-2.7s1.2-2.7,2.7-2.7s2.7,1.2,2.7,2.7c0,1-0.5,1.9-1.3,2.4l-4.4-4.4c-0.3,0.4-0.8,0.6-1.4,0.6c-1.5,0-2.7-1.2-2.7-2.7s1.2-2.7,2.7-2.7s2.7,1.2,2.7,2.7c0,1-0.5,1.9-1.3,2.4l-4.4-4.4c-0.3,0.4-0.8,0.6-1.4,0.6c-1.5,0-2.7-1.2-2.7-2.7s1.2-2.7,2.7-2.7s2.7,1.2,2.7,2.7c0,1-0.5,1.9-1.3,2.4l-4.4-4.4c-0.3,0.4-0.8,0.6-1.4,0.6c-1.5,0-2.7-1.2-2.7-2.7s1.2-2.7,2.7-2.7s2.7,1.2,2.7,2.7c0,1-0.5,1.9-1.3,2.4l-4.4-4.4c-0.3,0.4-0.8,0.6-1.4,0.6c-1.5,0-2.7-1.2-2.7-2.7s1.2-2.7,2.7-2.7s2.7,1.2,2.7,2.7c0,1-0.5,1.9-1.3,2.4l-4.4-4.4c-0.3,0.4-0.8,0.6-1.4,0.6c-1.5,0-2.7-1.2-2.7-2.7s1.2-2.7,2.7-2.7s2.7,1.2,2.7,2.7c0,1-0.5,1.9-1.3,2.4l-4.4-4.4c-0.3,0.4-0.8,0.6-1.4,0.6c-1.5,0-2.7-1.2-2.7-2.7s1.2-2.7,2.7-2.7s2.7,1.2,2.7,2.7c0,1-0.5,1.9-1.3,2.4l-4.4-4.4c-0.3,0.4-0.8,0.6-1.4,0.6c-1.5,0-2.7-1.2-2.7-2.7s1.2-2.7,2.7-2.7s2.7,1.2,2.7,2.7c0,1-0.5,1.9-1.3,2.4l-4.4-4.4c-0.3,0.4-0.8,0.6-1.4,0.6c-1.5,0-2.7-1.2-2.7-2.7s1.2-2.7,2.7-2.7s2.7,1.2,2.7,2.7c0,1-0.5,1.9-1.3,2.4l-4.4-4.4c-0.3,0.4-0.8,0.6-1.4,0.6c-1.5,0-2.7-1.2-2.7-2.7s1.2-2.7,2.7-2.7s2.7,1.2,2.7,2.7c0,1-0.5,1.9-1.3,2.4l-4.4-4.4c-0.3,0.4-0.8,0.6-1.4,0.6c-1.5,0-2.7-1.2-2.7-2.7s1.2-2.7,2.7-2.7s2.7,1.2,2.7,2.7c0,1-0.5,1.9-1.3,2.4l-4.4-4.4c-0.3,0.4-0.8,0.6-1.4,0.6c-1.5,0-2.7-1.2-2.7-2.7s1.2-2.7,2.7-2.7s2.7,1.2,2.7,2.7c0,1-0.5,1.9-1.3,2.4l-4.4-4.4c-0.3,0.4-0.8,0.6-1.4,0.6c-1.5,0-2.7-1.2-2.7-2.7s1.2-2.7,2.7-2.7s2.7,1.2,2.7,2.7c0,1-0.5,1.9-1.3,2.4l-4.4-4.4c-0.3,0.4-0.8,0.6-1.4,0.6c-1.5,0-2.7-1.2-2.7-2.7s1.2-2.7,2.7-2.7s2.7,1.2,2.7,2.7c0,1-0.5,1.9-1.3,2.4l-4.4-4.4c-0.3,0.4-0.8,0.6-1.4,0.6c-1.5,0-2.7-1.2-2.7-2.7s1.2-2.7,2.7-2.7s2.7,1.2,2.7,2.7c0,1-0.5,1.9-1.3,2.4l-4.4-4.4c-0.3,0.4-0.8,0.6-1.4,0.6c-1.5,0-2.7-1.2-2.7-2.7s1.2-2.7,2.7-2.7s2.7,1.2,2.7,2.7c0,1-0.5,1.9-1.3,2.4l-4.4-4.4c-0.3,0.4-0.8,0.6-1.4,0.6c-1.5,0-2.7-1.2-2.7-2.7s1.2-2.7,2.7-2.7s2.7,1.2,2.7,2.7c0,1-0.5,1.9-1.3,2.4l-4.4-4.4c-0.3,0.4-0.8,0.6-1.4,0.6c-1.5,0-2.7-1.2-2.7-2.7s1.2-2.7,2.7-2.7s2.7,1.2,2.7,2.7c0,1-0.5,1.9-1.3,2.4l-4.4-4.4c-0.3,0.4-0.8,0.6-1.4,0.6c-1.5,0-2.7-1.2-2.7-2.7s1.2-2.7,2.7-2.7s2.7,1.2,2.7,2.7c0,1-0.5,1.9-1.3,2.4l-4.4-4.4c-0.3,0.4-0.8,0.6-1.4,0.6c-1.5,0-2.7-1.2-2.7-2.7s1.2-2.7,2.7-2.7s2.7,1.2,2.7,2.7c0,1-0.5,1.9-1.3,2.4l-4.4-4.4c-0.3,0.4-0.8,0.6-1.4,0.6c-1.5,0-2.7-1.2-2.7-2.7s1.2-2.7,2.7-2.7s2.7,1.2,2.7,2.7c0,1-0.5,1.9-1.3,2.4l-4.4-4.4c-0.3,0.4-0.8,0.6-1.4,0.6c-1.5,0-2.7-1.2-2.7-2.7s1.2-2.7,2.7-2.7s2.7,1.2,2.7,2.7c0,1-0.5,1.9-1.3,2.4l-4.4-4.4c-0.3,0.4-0.8,0.6-1.4,0.6c-1.5,0-2.7-1.2-2.7-2.7s1.2-2.7,2.7-2.7s2.7,1.2,2.7,2.7c0,1-0.5,1.9-1.3,2.4l-4.4-4.4c-0.3,0.4-0.8,0.6-1.4,0.6c-1.5,0-2.7-1.2-2.7-2.7s1.2-2.7,2.7-2.7s2.7,1.2,2.7,2.7c0,1-0.5,1.9-1.3,2.4l-4.4-4.4c-0.3,0.4-0.8,0.6-1.4,0.6c-1.5,0-2.7-1.2-2.7-2.7s1.2-2.7,2.7-2.7s2.7,1.2,2.7,2.7c0,1-0.5,1.9-1.3,2.4l-4.4-4.4c-0.3,0.4-0.8,0.6-1.4,0.6c-1.5,0-2.7-1.2-2.7-2.7s1.2-2.7,2.7-2.7s2.7,1.2,2.7,2.7c0,1-0.5,1.9-1.3,2.4l-4.4-4.4c-0.3,0.4-0.8,0.6-1.4,0.6c-1.5,0-2.7-1.2-2.7-2.7s1.2-2.7,2.7-2.7s2.7,1.2,2.7,2.7c0,1-0.5,1.9-1.3,2.4l-4.4-4.4c-0.3,0.4-0.8,0.6-1.4,0.6c-1.5,0-2.7-1.2-2.7-2.7s1.2-2.7,2.7-2.7s2.7,1.2,2.7,2.7c0,1-0.5,1.9-1.3,2.4l-4.4-4.4c-0.3,0.4-0.8,0.6-1.4,0.6c-1.5,0-2.7-1.2-2.7-2.7s1.2-2.7,2.7-2.7s2.7,1.2,2.7,2.7c0,1-0.5,1.9-1.3,2.4l-4.4-4.4c-0.3,0.4-0.8,0.6-1.4,0.6c-1.5,0-2.7-1.2-2.7-2.7s1.2-2.7,2.7-2.7s2.7,1.2,2.7,2.7c0,1-0.5,1.9-1.3,2.4l-4.4-4.4c-0.3,0.4-0.8,0.6-1.4,0.6c-1.5,0-2.7-1.2-2.7-2.7s1.2-2.7,2.7-2.7s2.7,1.2,2.7,2.7c0,1-0.5,1.9-1.3,2.4l-4.4-4.4c-0.3,0.4-0.8,0.6-1.4,0.6c-1.5,0-2.7-1.2-2.7-2.7s1.2-2.7,2.7-2.7s2.7,1.2,2.7,2.7c0,1-0.5,1.9-1.3,2.4l-4.4-4.4c-0.3,0.4-0.8,0.6-1.4,0.6c-1.5,0-2.7-1.2-2.7-2.7s1.2-2.7,2.7-2.7s2.7,1.2,2.7,2.7c0,1-0.5,1.9-1.3,2.4l-4.4-4.4c-0.3,0.4-0.8,0.6-1.4,0.6c-1.5,0-2.7-1.2-2.7-2.7s1.2-2.7,2.7-2.7s2.7,1.2,2.7,2.7c0,1-0.5,1.9-1.3,2.4l-4.4-4.4c-0.3,0.4-0.8,0.6-1.4,0.6c-1.5,0-2.7-1.2-2.7-2.7s1.2-2.7,2.7-2.7s2.7,1.2,2.7,2.7c0,1-0.5,1.9-1.3,2.4l-4.4-4.4c-0.3,0.4-0.8,0.6-1.4,0.6c-1.5,0-2.7-1.2-2.7-2.7s1.2-2.7,2.7-2.7s2.7,1.2,2.7,2.7c0,1-0.5,1.9-1.3,2.4l-4.4-4.4c-0.3,0.4-0.8,0.6-1.4,0.6c-1.5,0-2.7-1.2-2.7-2.7s1.2-2.7,2.7-2.7s2.7,1.2,2.7,2.7c0,1-0.5,1.9-1.3,2.4l-4.4-4.4c-0.3,0.4-0.8,0.6-1.4,0.6c-1.5,0-2.7-1.2-2.7-2.7s1.2-2.7,2.7-2.7s2.7,1.2,2.7,2.7c0,1-0.5,1.9-1.3,2.4l-4.4-4.4c-0.3,0.4-0.8,0.6-1.4,0.6c-1.5,0-2.7-1.2-2.7-2.7s1.2-2.7,2.7-2.7s2.7,1.2,2.7,2.7c0,1-0.5,1.9-1.3,2.4l-4.4-4.4c-0.3,0.4-0.8,0.6-1.4,0.6c-1.5,0-2.7-1.2-2.7-2.7s1.2-2.7,2.7-2.7s2.7,1.2,2.7,2.7c0,1-0.5,1.9-1.3,2.4l-4.4-4.4c-0.3,0.4-0.8,0.6-1.4,0.6c-1.5,0-2.7-1.2-2.7-2.7s1.2-2.7,2.7-2.7s2.7,1.2,2.7,2.7c0,1-0.5,1.9-1.3,2.4l-4.4-4.4c-0.3,0.4-0.8,0.6-1.4,0.6c-1.5,0-2.7-1.2-2.7-2.7s1.2-2.7,2.7-2.7s2.7,1.2,2.7,2.7c0,1-0.5,1.9-1.3,2.4l-4.4-4.4c-0.3,0.4-0.8,0.6-1.4,0.6c-1.5,0-2.7-1.2-2.7-2.7s1.2-2.7,2.7-2.7s2.7,1.2,2.7,2.7c0,1-0.5,1.9-1.3,2.4l-4.4-4.4c-0.3,0.4-0.8,0.6-1.4,0.6c-1.5,0-2.7-1.2-2.7-2.7s1.2-2.7,2.7-2.7s2.7,1.2,2.7,2.7c0,1-0.5,1.9-1.3,2.4l-4.4-4.4c-0.3,0.4-0.8,0.6-1.4,0.6c-1.5,0-2.7-1.2-2.7-2.7s1.2-2.7,2.7-2.7s2.7,1.2,2.7,2.7c0,1-0.5,1.9-1.3,2.4l-4.4-4.4c-0.3,0.4-0.8,0.6-1.4,0.6c-1.5,0-2.7-1.2-2.7-2.7s1.2-2.7,2.7-2.7s2.7,1.2,2.7,2.7c0,1-0.5,1.9-1.3,2.4l-4.4-4.4c-0.3,0.4-0.8,0.6-1.4,0.6c-1.5,0-2.7-1.2-2.7-2.7s1.2-2.7,2.7-2.7s2.7,1.2,2.7,2.7c0,1-0.5,1.9-1.3,2.4l-4.4-4.4c-0.3,0.4-0.8,0.6-1.4,0.6c-1.5,0-2.7-1.2-2.7-2.7s1.2-2.7,2.7-2.7s2.7,1.2,2.7,2.7c0,1-0.5,1.9-1.3,2.4l-4.4-4.4c-0.3,0.4-0.8,0.6-1.4,0.6c-1.5,0-2.7-1.2-2.7-2.7s1.2-2.7,2.7-2.7s2.7,1.2,2.7,2.7c0,1-0.5,1.9-1.3,2.4l-4.4-4.4c-0.3,0.4-0.8,0.6-1.4,0.6c-1.5,0-2.7-1.2-2.7-2.7s1.2-2.7,2.7-2.7s2.7,1.2,2.7,2.7c0,1-0.5,1.9-1.3,2.4l-4.4-4.4c-0.3,0.4-0.8,0.6-1.4,0.6c-1.5,0-2.7-1.2-2.7-2.7s1.2-2.7,2.7-2.7s2.7,1.2,2.7,2.7c0,1-0.5,1.9-1.3,2.4l-4.4-4.4c-0.3,0.4-0.8,0.6-1.4,0.6c-1.5,0-2.7-1.2-2.7-2.7s1.2-2.7,2.7-2.7s2.7,1.2,2.7,2.7c0,1-0.5,1.9-1.3,2.4l-4.4-4.4c-0.3,0.4-0.8,0.6-1.4,0.6c-1.5,0-2.7-1.2-2.7-2.7s1.2-2.7,2.7-2.7s2.7,1.2,2.7,2.7c0,1-0.5,1.9-1.3,2.4l-4.4-4.4c-0.3,0.4-0.8,0.6-1.4,0.6c-1.5,0-2.7-1.2-2.7-2.7s1.2-2.7,2.7-2.7s2.7,1.2,2.7,2.7c0,1-0.5,1.9-1.3,2.4l-4.4-4.4c-0.3,0.4-0.8,0.6-1.4,0.6c-1.5,0-2.7-1.2-2.7-2.7s1.2-2.7,2.7-2.7s2.7,1.2,2.7,2.7c0,1-0.5,1.9-1.3,2.4l-4.4-4.4c-0.3,0.4-0.8,0.6-1.4,0.6c-1.5,0-2.7-1.2-2.7-2.7s1.2-2.7,2.7-2.7s2.7,1.2,2.7,2.7c0,1-0.5,1.9-1.3,2.4l-4.4-4.4c-0.3,0.4-0.8,0.6-1.4,0.6c-1.5,0-2.7-1.2-2.7-2.7s1.2-2.7,2.7-2.7s2.7,1.2,2.7,2.7c0,1-0.5,1.9-1.3,2.4l-4.4-4.4c-0.3,0.4-0.8,0.6-1.4,0.6c-1.5,0-2.7-1.2-2.7-2.7s1.2-2.7,2.7-2.7s2.7,1.2,2.7,2.7c0,1-0.5,1.9-1.3,2.4l-4.4-4.4c-0.3,0.4-0.8,0.6-1.4,0.6c-1.5,0-2.7-1.2-2.7-2.7s1.2-2.7,2.7-2.7s2.7,1.2,2.7,2.7c0,1-0.5,1.9-1.3,2.4l-4.4-4.4c-0.3,0.4-0.8,0.6-1.4,0.6c-1.5,0-2.7-1.2-2.7-2.7s1.2-2.7,2.7-2.7s2.7,1.2,2.7,2.7c0,1-0.5,1.9-1.3,2.4l-4.4-4.4c-0.3,0.4-0.8,0.6-1.4,0.6c-1.5,0-2.7-1.2-2.7-2.7s1.2-2.7,2.7-2.7s2.7,1.2,2.7,2.7c0,1-0.5,1.9-1.3,2.4l-4.4-4.4c-0.3,0.4-0.8,0.6-1.4,0.6c-1.5,0-2.7-1.2-2.7-2.7s1.2-2.7,2.7-2.7s2.7,1.2,2.7,2.7c0,1-0.5,1.9-1.3,2.4l-4.4-4.4c-0.3,0.4-0.8,0.6-1.4,0.6c-1.5,0-2.7-1.2-2.7-2.7s1.2-2.7,2.7-2.7s2.7,1.2,2.7,2.7c0,1-0.5,1.9-1.3,2.4l-4.4-4.4c-0.3,0.4-0.8,0.6-1.4,0.6c-1.5,0-2.7-1.2-2.7-2.7s1.2-2.7,2.7-2.7s2.7,1.2,2.7,2.7c0,1-0.5,1.
    <style>
        .box { fill: #ffffff; stroke: #333; stroke-width: 1; }
        .gcp-box { fill: #e3f2fd; stroke: #4285f4; }
        .k8s-box { fill: #e8f5e9; stroke: #34a853; }
        .ci-box { fill: #fff3e0; stroke: #fbbc05; }
        .text { font-family: Arial, sans-serif; font-size: 14px; text-anchor: middle; fill: #202124; }
        .title { font-size: 16px; font-weight: bold; }
        .arrow { stroke: #5f6368; stroke-width: 2; fill: none; marker-end: url(#arrowhead); }
        .dashed-arrow { stroke: #5f6368; stroke-width: 2; stroke-dasharray: 5,5; fill: none; marker-end: url(#arrowhead); }
    </style>
    <defs>
        <marker id="arrowhead" viewBox="0 0 10 10" refX="8" refY="5" markerWidth="6" markerHeight="6" orient="auto-start-reverse">
            <path d="M 0 0 L 10 5 L 0 10 z" fill="#5f6368" />
        </marker>
    </defs>

    <!-- Main GCP Box -->
    <rect x="10" y="10" width="780" height="530" rx="10" class="gcp-box" />
    <text x="400" y="40" class="title text">Google Cloud Platform (GCP)</text>

    <!-- Actors -->
    <text x="110" y="85" class="title text">Developer</text>
    <text x="110" y="305" class="title text">End User</text>

    <!-- Terraform -->
    <rect x="250" y="60" width="120" height="60" rx="5" class="box" />
    <text x="310" y="95" class="text">Terraform</text>

    <!-- VPC Network -->
    <rect x="420" y="60" width="350" height="460" rx="10" class="box" style="fill: #fafafa; stroke-dasharray: 5,5;" />
    <text x="595" y="85" class="text" style="font-style: italic;">VPC Network</text>

    <!-- Jenkins -->
    <rect x="450" y="110" width="130" height="70" rx="5" class="ci-box" />
    <text x="515" y="140" class="title text">Jenkins VM</text>
    <text x="515" y="160" class="text">(CI/CD)</text>

    <!-- K3s Cluster -->
    <rect x="450" y="210" width="300" height="290" rx="10" class="k8s-box" />
    <text x="600" y="235" class="title text">K3s Cluster</text>

    <rect x="470" y="260" width="120" height="60" rx="5" class="box" /><text x="530" y="295" class="text">Master Node</text>
    <rect x="470" y="340" width="120" height="60" rx="5" class="box" /><text x="530" y="375" class="text">Worker Node 1</text>
    <rect x="610" y="340" width="120" height="60" rx="5" class="box" /><text x="670" y="375" class="text">Worker Node 2</text>
    <rect x="480" y="420" width="240" height="50" rx="5" class="box" style="fill: #e1f5fe;" /><text x="600" y="450" class="text">App Pods (Deployment)</text>

    <!-- Arrows -->
    <path class="arrow" d="M160,90 L250,90" /><text x="205" y="85" class="text" style="font-size:12px;">git push</text>
    <path class="arrow" d="M370,90 C 400,90 400,250 430,250" /><text x="400" y="160" class="text" style="font-size:12px;">Provisions</text>
    <path class="dashed-arrow" d="M160,90 C 200,150 450,120 450,145" /><text x="320" y="115" class="text" style="font-size:12px;">Builds &amp; Deploys</text>
    <path class="arrow" d="M110,330 C 250,330 350,420 480,445" /><text x="320" y="360" class="text" style="font-size:12px;">HTTP/S Request</text>
    <path class="arrow" d="M590,290 L590,340" /><text x="615" y="320" class="text" style="font-size:12px;">Manages</text>
</svg>